<svg width="320" height="60" viewBox="0 0 320 60" fill="none" xmlns="http://www.w3.org/2000/svg">
<path d="M0.553108 22.3114C0.553108 13.9234 6.89885 7.94231 16.0163 7.94231H27.7596C36.877 7.94231 43.2228 13.9234 43.2228 22.3114V59H34.8347V38.9416H8.94116V59H0.553108V22.3114ZM8.94116 30.8453H34.8347V22.749C34.8347 18.8832 32.1359 16.0386 27.7596 16.0386H16.0163C11.6399 16.0386 8.94116 18.8832 8.94116 22.749V30.8453ZM68.9562 59H49.7731V0.648357H57.7964V15.2363H68.9562C81.9394 15.2363 91.7133 24.5725 91.7133 37.1181C91.7133 49.6637 81.9394 59 68.9562 59ZM57.7964 51.2684H68.9562C77.0525 51.2684 83.3253 45.2874 83.3253 37.1181C83.3253 28.9489 77.0525 22.9679 68.9562 22.9679H57.7964V51.2684ZM118.148 59.7294C105.164 59.7294 95.3175 50.1014 95.3175 37.1181C95.3175 24.1349 105.164 14.5069 118.148 14.5069C131.131 14.5069 140.905 24.1349 140.905 37.1181C140.905 50.1014 131.131 59.7294 118.148 59.7294ZM103.706 37.1181C103.706 45.725 109.978 51.9978 118.148 51.9978C126.244 51.9978 132.517 45.725 132.517 37.1181C132.517 28.5113 126.244 22.2385 118.148 22.2385C109.978 22.2385 103.706 28.5113 103.706 37.1181ZM182.702 15.2363V59H164.102C153.38 59 145.503 51.2684 145.503 40.5463V15.2363H153.526V40.3275C153.526 46.7462 157.903 51.2684 164.102 51.2684H174.679V15.2363H182.702ZM202.444 59C194.639 59 189.096 53.5295 189.096 46.0897V7.94231H197.119V15.2363H213.895V22.9679H197.119V46.0897C197.119 49.0802 199.161 51.2684 202.516 51.2684H213.895V59H202.444Z" fill="#02021E"/>
<path d="M235.47 7.94231H243.858V38.7957C243.858 46.7462 249.328 51.6331 256.841 51.6331C264.281 51.6331 269.751 46.7462 269.751 38.7957V7.94231H278.139V38.7957C278.139 51.779 269.241 59.7294 256.841 59.7294C244.441 59.7294 235.47 51.779 235.47 38.7957V7.94231ZM285.054 59V51.2684H305.55C308.906 51.2684 310.948 49.0802 310.948 46.0897C310.948 43.1721 308.906 40.9839 305.55 40.9839H296.287C288.483 40.9839 282.866 35.5135 282.866 28.0736C282.866 20.6338 288.483 15.2363 296.287 15.2363H317.148V22.9679H296.652C293.369 22.9679 291.254 25.156 291.254 28.0736C291.254 31.0642 293.369 33.2523 296.652 33.2523H305.988C313.793 33.2523 319.336 38.6499 319.336 46.0897C319.336 53.5295 313.793 59 305.988 59H285.054Z" fill="#3827C7"/>
</svg>
