<?xml version="1.0" encoding="utf-8"?>
<!-- Generator: Adobe Illustrator 27.5.0, SVG Export Plug-In . SVG Version: 6.00 Build 0)  -->
<svg version="1.1" xmlns="http://www.w3.org/2000/svg" xmlns:xlink="http://www.w3.org/1999/xlink" x="0px" y="0px"
	 viewBox="0 0 500 500" style="enable-background:new 0 0 500 500;" xml:space="preserve">
<g id="Background_complete">
	<g>
		<g>
			<g>
				<g>
					<g>
						<path style="fill:#E0E0E0;" d="M443.92,319.533H263.174c-3.232,0-5.862-2.63-5.862-5.862V50.397
							c0-3.232,2.63-5.862,5.862-5.862H443.92c3.232,0,5.862,2.629,5.862,5.862V313.67
							C449.783,316.903,447.153,319.533,443.92,319.533z M263.174,44.785c-3.095,0-5.612,2.518-5.612,5.612V313.67
							c0,3.095,2.518,5.612,5.612,5.612H443.92c3.095,0,5.612-2.517,5.612-5.612V50.397c0-3.094-2.518-5.612-5.612-5.612H263.174z"
							/>
					</g>
				</g>
				<g>
					<g>
						<path style="fill:#E0E0E0;" d="M235.493,319.533H54.746c-3.232,0-5.862-2.63-5.862-5.862V50.397
							c0-3.232,2.629-5.862,5.862-5.862h180.747c3.232,0,5.862,2.629,5.862,5.862V313.67
							C241.355,316.903,238.725,319.533,235.493,319.533z M54.746,44.785c-3.094,0-5.612,2.518-5.612,5.612V313.67
							c0,3.095,2.518,5.612,5.612,5.612h180.747c3.095,0,5.612-2.517,5.612-5.612V50.397c0-3.094-2.518-5.612-5.612-5.612H54.746z"
							/>
					</g>
				</g>
			</g>
			<g>
				<g>
					<rect x="0" y="380.602" style="fill:#E0E0E0;" width="500" height="0.25"/>
				</g>
			</g>
		</g>
		<rect x="51.672" y="394.866" style="fill:#E0E0E0;" width="16.06" height="0.25"/>
		<rect x="170.352" y="392.156" style="fill:#E0E0E0;" width="53.53" height="0.25"/>
		<rect x="68.732" y="404.156" style="fill:#E0E0E0;" width="36.25" height="0.25"/>
		<rect x="378.352" y="392.026" style="fill:#E0E0E0;" width="43.19" height="0.25"/>
		<rect x="430.452" y="392.026" style="fill:#E0E0E0;" width="6.33" height="0.25"/>
		<rect x="316.212" y="398.256" style="fill:#E0E0E0;" width="53.89" height="0.25"/>
	</g>
	<g>
		<g>
			<g>
				<path style="fill:#E0E0E0;" d="M409.798,438.748c-0.013-0.391-1.33-39.271-7.654-45.42c-6.151-5.979-13.21-0.222-13.507,0.025
					l-0.634-0.76c0.08-0.068,8.047-6.571,14.831,0.025c6.608,6.426,7.901,44.481,7.952,46.098L409.798,438.748z"/>
			</g>
			<g>
				<path style="fill:#E0E0E0;" d="M410.341,446.389c-0.046-0.465-4.322-46.674,12.554-66.042l0.746,0.65
					c-16.596,19.047-12.359,64.836-12.315,65.296L410.341,446.389z"/>
			</g>
			<g>
				<path style="fill:#E0E0E0;" d="M409.717,441.501l-0.988-0.066c0.035-0.524,3.303-52.534-9.076-63.919l0.67-0.729
					C413.049,388.492,409.859,439.341,409.717,441.501z"/>
			</g>
			<g>
				<path style="fill:#E0E0E0;" d="M411.328,441.472l-0.99-0.008c0.012-1.432,0.408-35.13,9.98-40.616
					c2.128-1.221,4.211-1.424,6.194-0.604c5.788,2.394,8.656,12.695,8.775,13.132l-0.955,0.261c-0.028-0.103-2.86-10.271-8.2-12.479
					c-1.683-0.695-3.473-0.511-5.322,0.548C411.728,406.911,411.331,441.127,411.328,441.472z"/>
			</g>
			<g>
				<path style="fill:#E0E0E0;" d="M407.601,441.496l-0.988-0.056c0.015-0.266,1.444-26.63-5.671-35.918
					c-1.724-2.25-3.595-3.323-5.572-3.185c-4.662,0.326-8.571,7.148-8.61,7.216l-0.862-0.487c0.17-0.3,4.208-7.353,9.401-7.716
					c2.323-0.165,4.489,1.038,6.429,3.571C409.066,414.5,407.664,440.399,407.601,441.496z"/>
			</g>
			<g>
				<path style="fill:#E0E0E0;" d="M409.161,445.082c-0.194-2.558-4.651-62.755,3.192-73.362l0.795,0.588
					c-7.626,10.314-3.047,72.076-3,72.699L409.161,445.082z"/>
			</g>
		</g>
		<g>
			<path style="fill:#EBEBEB;" d="M428.645,406.345c0,0-4.705,1.735-3.306,5.829c1.399,4.095,16.276,10.835,16.276,10.835
				s6.231-5.711,0.509-15C436.402,398.721,428.773,403.414,428.645,406.345z"/>
		</g>
		<g>
			<path style="fill:#EBEBEB;" d="M408.192,398.55c0,0,5.01-0.21,5.295,4.108c0.285,4.318-10.854,16.264-10.854,16.264
				s-7.949-2.874-6.242-13.649C398.098,394.498,406.947,395.894,408.192,398.55z"/>
		</g>
		<g>
			<path style="fill:#EBEBEB;" d="M403.95,377.88c0,0,3.34-0.359,3.072-2.393c-0.269-2.035-12.985-7.271-20.488,1.196
				c0,0,4.804,8.252,11.748,8.36C405.227,385.151,403.95,377.88,403.95,377.88z"/>
		</g>
		<g>
			<path style="fill:#EBEBEB;" d="M410.174,372.939c0,0-3.024,1.463-3.872-0.406c-0.848-1.869,7.175-13.039,18.021-9.82
				c0,0,0.287,9.544-5.549,13.309C412.937,379.786,410.174,372.939,410.174,372.939z"/>
		</g>
		<g>
			<path style="fill:#EBEBEB;" d="M394.359,404.699c0,0,2.305-1.861-0.183-2.77c-2.488-0.909-14.695-0.65-14.823,11.442
				c0,0,14.218,2.363,15.978-2.243C397.092,406.521,394.359,404.699,394.359,404.699z"/>
		</g>
		<g>
			<path style="fill:#EBEBEB;" d="M423.352,377.577c0,0-2.305-1.862,0.183-2.77c2.488-0.909,14.695-0.65,14.823,11.442
				c0,0-14.218,2.363-15.978-2.243C420.62,379.4,423.352,377.577,423.352,377.577z"/>
		</g>
		<g>
			<path style="fill:#EBEBEB;" d="M415.836,387.318c0,0-0.203-2.263,1.624-1.376c1.827,0.887,8.191,7.753,1.594,14.268
				c0,0-8.88-6.577-7.279-10.002C413.375,386.784,415.836,387.318,415.836,387.318z"/>
		</g>
		<g>
			<path style="fill:#EBEBEB;" d="M392.298,390.543c0,0,1.378-1.806-0.64-2.03c-2.018-0.224-11.063,2.19-8.957,11.22
				c0,0,11.019-0.828,11.491-4.579C394.665,391.403,392.298,390.543,392.298,390.543z"/>
		</g>
		<polygon style="fill:#F0F0F0;" points="420.591,458.914 398.365,458.914 392.454,431.645 425.942,431.645 		"/>
		<rect x="390.437" y="431.25" style="fill:#E6E6E6;" width="37.434" height="7.841"/>
	</g>
	<g>
		<g>
			<g>
				<path style="fill:#E0E0E0;" d="M61.195,438.748c-0.013-0.391-1.33-39.271-7.654-45.42c-6.151-5.979-13.21-0.222-13.507,0.025
					l-0.634-0.76c0.08-0.068,8.047-6.571,14.831,0.025c6.608,6.426,7.901,44.481,7.952,46.098L61.195,438.748z"/>
			</g>
			<g>
				<path style="fill:#E0E0E0;" d="M61.738,446.389c-0.045-0.465-4.322-46.674,12.554-66.042l0.746,0.65
					c-16.596,19.047-12.359,64.836-12.315,65.296L61.738,446.389z"/>
			</g>
			<g>
				<path style="fill:#E0E0E0;" d="M61.114,441.501l-0.988-0.066c0.035-0.524,3.303-52.534-9.076-63.919l0.67-0.729
					C64.446,388.492,61.256,439.341,61.114,441.501z"/>
			</g>
			<g>
				<path style="fill:#E0E0E0;" d="M62.725,441.472l-0.99-0.008c0.012-1.432,0.408-35.13,9.98-40.616
					c2.128-1.221,4.211-1.424,6.193-0.604c5.788,2.394,8.656,12.695,8.775,13.132l-0.955,0.261c-0.028-0.103-2.86-10.271-8.2-12.479
					c-1.683-0.695-3.473-0.511-5.322,0.548C63.125,406.911,62.728,441.127,62.725,441.472z"/>
			</g>
			<g>
				<path style="fill:#E0E0E0;" d="M58.998,441.496l-0.988-0.056c0.015-0.266,1.444-26.63-5.671-35.918
					c-1.724-2.25-3.595-3.323-5.573-3.185c-4.662,0.326-8.571,7.148-8.61,7.216l-0.862-0.487c0.169-0.3,4.208-7.353,9.401-7.716
					c2.323-0.165,4.489,1.038,6.429,3.571C60.463,414.5,59.061,440.399,58.998,441.496z"/>
			</g>
			<g>
				<path style="fill:#E0E0E0;" d="M60.558,445.082c-0.194-2.558-4.651-62.755,3.192-73.362l0.795,0.588
					c-7.626,10.314-3.047,72.076-3,72.699L60.558,445.082z"/>
			</g>
		</g>
		<g>
			<path style="fill:#EBEBEB;" d="M80.042,406.345c0,0-4.705,1.735-3.306,5.829c1.399,4.095,16.277,10.835,16.277,10.835
				s6.231-5.711,0.509-15C87.799,398.721,80.17,403.414,80.042,406.345z"/>
		</g>
		<g>
			<path style="fill:#EBEBEB;" d="M59.589,398.55c0,0,5.01-0.21,5.295,4.108c0.285,4.318-10.854,16.264-10.854,16.264
				s-7.949-2.874-6.242-13.649C49.495,394.498,58.343,395.894,59.589,398.55z"/>
		</g>
		<g>
			<path style="fill:#EBEBEB;" d="M55.347,377.88c0,0,3.34-0.359,3.072-2.393c-0.269-2.035-12.985-7.271-20.488,1.196
				c0,0,4.804,8.252,11.748,8.36C56.623,385.151,55.347,377.88,55.347,377.88z"/>
		</g>
		<g>
			<path style="fill:#EBEBEB;" d="M61.571,372.939c0,0-3.025,1.463-3.873-0.406c-0.848-1.869,7.175-13.039,18.021-9.82
				c0,0,0.287,9.544-5.549,13.309C64.334,379.786,61.571,372.939,61.571,372.939z"/>
		</g>
		<g>
			<path style="fill:#EBEBEB;" d="M45.756,404.699c0,0,2.305-1.861-0.183-2.77c-2.488-0.909-14.695-0.65-14.823,11.442
				c0,0,14.218,2.363,15.978-2.243C48.488,406.521,45.756,404.699,45.756,404.699z"/>
		</g>
		<g>
			<path style="fill:#EBEBEB;" d="M74.749,377.577c0,0-2.305-1.862,0.183-2.77c2.488-0.909,14.695-0.65,14.822,11.442
				c0,0-14.218,2.363-15.978-2.243C72.016,379.4,74.749,377.577,74.749,377.577z"/>
		</g>
		<g>
			<path style="fill:#EBEBEB;" d="M67.232,387.318c0,0-0.203-2.263,1.624-1.376c1.827,0.887,8.191,7.753,1.594,14.268
				c0,0-8.88-6.577-7.279-10.002C64.772,386.784,67.232,387.318,67.232,387.318z"/>
		</g>
		<g>
			<path style="fill:#EBEBEB;" d="M43.695,390.543c0,0,1.378-1.806-0.64-2.03c-2.018-0.224-11.063,2.19-8.957,11.22
				c0,0,11.019-0.828,11.491-4.579C46.062,391.403,43.695,390.543,43.695,390.543z"/>
		</g>
		<polygon style="fill:#F0F0F0;" points="71.988,458.914 49.762,458.914 43.85,431.645 77.339,431.645 		"/>
		<rect x="41.834" y="431.25" style="fill:#E6E6E6;" width="37.434" height="7.841"/>
	</g>
	<path style="fill:#EBEBEB;" d="M362.241,119.758c-1.11-5.357-3.233-10.337-6.136-14.761l5.285-6.384l-11.299-11.3l-6.384,5.285
		c-4.423-2.902-9.404-5.025-14.76-6.136l-0.775-8.229h-15.98l-0.775,8.229c-5.356,1.111-10.337,3.234-14.76,6.136l-6.384-5.285
		l-11.3,11.3l5.285,6.384c-2.903,4.423-5.025,9.403-6.136,14.76l-8.229,0.776v15.979l8.229,0.776
		c1.111,5.356,3.234,10.336,6.136,14.759l-5.285,6.384l11.3,11.3l6.384-5.286c4.423,2.904,9.403,5.026,14.76,6.137l0.775,8.229
		h15.98l0.775-8.228c5.356-1.11,10.337-3.234,14.76-6.138l6.384,5.286l11.299-11.3l-5.285-6.383
		c2.903-4.424,5.026-9.404,6.136-14.76l8.228-0.776v-15.979L362.241,119.758z M341.814,128.523c0,11.947-9.685,21.633-21.633,21.633
		c-11.948,0-21.633-9.686-21.633-21.633c0-11.948,9.685-21.633,21.633-21.633C332.129,106.89,341.814,116.575,341.814,128.523z"/>
	<path style="fill:#EBEBEB;" d="M133.451,231.766c-0.958-4.622-2.79-8.919-5.295-12.736l4.56-5.508l-9.749-9.75l-5.509,4.56
		c-3.816-2.504-8.114-4.336-12.735-5.294l-0.669-7.1H90.267l-0.669,7.1c-4.621,0.958-8.919,2.79-12.735,5.294l-5.508-4.56
		l-9.75,9.75l4.56,5.508c-2.505,3.816-4.336,8.113-5.295,12.735l-7.1,0.669v13.787l7.1,0.669c0.959,4.621,2.79,8.918,5.295,12.735
		l-4.56,5.508l9.75,9.75l5.508-4.561c3.816,2.506,8.113,4.337,12.735,5.295l0.669,7.1h13.788l0.669-7.099
		c4.621-0.958,8.919-2.79,12.735-5.296l5.509,4.561l9.749-9.75l-4.56-5.508c2.505-3.817,4.336-8.114,5.295-12.735l7.099-0.669
		v-13.787L133.451,231.766z M115.826,239.329c0,10.308-8.357,18.665-18.665,18.665c-10.309,0-18.665-8.357-18.665-18.665
		c0-10.309,8.357-18.665,18.665-18.665C107.469,220.663,115.826,229.02,115.826,239.329z"/>
	<path style="fill:#EBEBEB;" d="M436.632,268.389c-0.861-4.151-2.505-8.011-4.755-11.439l4.096-4.947l-8.756-8.757l-4.948,4.095
		c-3.428-2.249-7.287-3.894-11.438-4.755l-0.601-6.377h-12.384l-0.601,6.377c-4.151,0.861-8.011,2.506-11.438,4.755l-4.947-4.095
		l-8.757,8.757l4.096,4.947c-2.25,3.427-3.894,7.287-4.755,11.438l-6.377,0.601v12.383l6.377,0.601
		c0.861,4.151,2.506,8.01,4.755,11.438l-4.096,4.947l8.757,8.757l4.947-4.096c3.427,2.25,7.287,3.895,11.438,4.756l0.601,6.377
		h12.384l0.601-6.376c4.151-0.86,8.01-2.506,11.438-4.756l4.948,4.096l8.756-8.757l-4.096-4.947
		c2.25-3.428,3.895-7.287,4.755-11.438l6.376-0.601v-12.383L436.632,268.389z M420.803,275.182c0,9.258-7.506,16.764-16.764,16.764
		c-9.259,0-16.764-7.506-16.764-16.764c0-9.259,7.506-16.764,16.764-16.764C413.297,258.417,420.803,265.923,420.803,275.182z"/>
	<path style="fill:#F0F0F0;" d="M233.166,261.726c-0.848-4.091-2.469-7.895-4.686-11.273l4.036-4.876l-8.63-8.63l-4.876,4.036
		c-3.378-2.216-7.182-3.838-11.272-4.686l-0.592-6.284h-12.204l-0.592,6.284c-4.091,0.848-7.895,2.47-11.272,4.686l-4.876-4.036
		l-8.63,8.63l4.036,4.876c-2.217,3.378-3.838,7.181-4.687,11.272l-6.284,0.592v12.204l6.284,0.592
		c0.849,4.091,2.47,7.894,4.687,11.272l-4.036,4.876l8.63,8.63l4.876-4.037c3.378,2.218,7.182,3.839,11.272,4.687l0.592,6.284
		h12.204l0.592-6.284c4.091-0.848,7.894-2.47,11.272-4.687l4.876,4.037l8.63-8.63l-4.036-4.875
		c2.217-3.379,3.839-7.182,4.686-11.272l6.284-0.592v-12.204L233.166,261.726z M217.565,268.419c0,9.124-7.397,16.521-16.522,16.521
		c-9.125,0-16.521-7.397-16.521-16.521c0-9.125,7.397-16.521,16.521-16.521C210.168,251.898,217.565,259.295,217.565,268.419z"/>
	<path style="fill:#F0F0F0;" d="M217.108,197.942c-0.398-1.922-1.16-3.71-2.202-5.297l1.897-2.291l-4.055-4.055l-2.291,1.896
		c-1.587-1.041-3.375-1.803-5.297-2.202l-0.278-2.953h-5.735l-0.278,2.953c-1.922,0.399-3.709,1.16-5.297,2.202l-2.291-1.896
		l-4.055,4.055l1.897,2.291c-1.042,1.587-1.803,3.374-2.202,5.297l-2.953,0.278v5.734l2.953,0.278
		c0.399,1.922,1.16,3.709,2.202,5.296l-1.897,2.291l4.055,4.055l2.291-1.897c1.587,1.042,3.374,1.804,5.297,2.202l0.278,2.953h5.735
		l0.278-2.953c1.922-0.398,3.709-1.16,5.297-2.202l2.291,1.897l4.055-4.055l-1.897-2.291c1.042-1.588,1.804-3.375,2.202-5.297
		l2.953-0.278v-5.734L217.108,197.942z M209.778,201.088c0,4.287-3.476,7.763-7.763,7.763c-4.287,0-7.763-3.476-7.763-7.763
		c0-4.287,3.476-7.763,7.763-7.763C206.302,193.325,209.778,196.8,209.778,201.088z"/>
	<path style="fill:#F0F0F0;" d="M281.328,61.485c-0.451-2.176-1.313-4.199-2.492-5.995l2.147-2.593l-4.589-4.59l-2.593,2.146
		c-1.797-1.179-3.82-2.041-5.995-2.492l-0.315-3.342H261l-0.315,3.342c-2.176,0.451-4.198,1.313-5.995,2.492l-2.593-2.146
		l-4.59,4.59l2.147,2.593c-1.179,1.796-2.041,3.819-2.492,5.995l-3.342,0.315v6.49l3.342,0.315c0.451,2.175,1.313,4.198,2.492,5.995
		l-2.147,2.593l4.59,4.59l2.593-2.147c1.796,1.179,3.819,2.041,5.995,2.493L261,85.469h6.49l0.315-3.342
		c2.175-0.451,4.198-1.313,5.995-2.493l2.593,2.147l4.589-4.59l-2.147-2.593c1.179-1.797,2.041-3.819,2.492-5.995l3.342-0.315V61.8
		L281.328,61.485z M273.031,65.045c0,4.852-3.934,8.786-8.786,8.786c-4.853,0-8.786-3.934-8.786-8.786
		c0-4.853,3.934-8.787,8.786-8.787C269.098,56.258,273.031,60.192,273.031,65.045z"/>
	<path style="fill:#F0F0F0;" d="M410.854,107.396c-0.343-1.655-0.999-3.193-1.895-4.56l1.633-1.972l-3.49-3.491l-1.972,1.632
		c-1.366-0.896-2.905-1.552-4.559-1.895l-0.239-2.542h-4.936l-0.24,2.542c-1.655,0.343-3.193,0.999-4.559,1.895l-1.972-1.632
		l-3.491,3.491l1.633,1.972c-0.897,1.366-1.552,2.905-1.896,4.559l-2.542,0.24v4.936l2.542,0.24
		c0.343,1.655,0.999,3.193,1.896,4.559l-1.633,1.972l3.491,3.491l1.972-1.633c1.366,0.897,2.905,1.552,4.559,1.896l0.24,2.542h4.936
		l0.239-2.542c1.655-0.343,3.193-0.999,4.559-1.896l1.972,1.633l3.49-3.491l-1.633-1.972c0.897-1.367,1.552-2.905,1.895-4.559
		l2.542-0.24v-4.936L410.854,107.396z M404.544,110.103c0,3.69-2.992,6.682-6.682,6.682c-3.691,0-6.682-2.992-6.682-6.682
		c0-3.691,2.992-6.682,6.682-6.682C401.553,103.421,404.544,106.412,404.544,110.103z"/>
</g>
<g id="Background_simple" style="display:none;">
	<g id="freepik--background-simple--inject-88" style="display:inline;">
		<path style="fill:#407BFF;" d="M244.859,77.956c-79.59,35.81-7.34,99.63-53.29,134.39c-45.95,34.76-170.9-5.42-123.27,84.83
			c56,106,301,91.3,353.78-38.74S324.449,42.146,244.859,77.956z"/>
		<path style="opacity:0.9;fill:#FFFFFF;enable-background:new    ;" d="M244.859,77.956c-79.59,35.81-7.34,99.63-53.29,134.39
			c-45.95,34.76-170.9-5.42-123.27,84.83c56,106,301,91.3,353.78-38.74S324.449,42.146,244.859,77.956z"/>
	</g>
</g>
<g id="Shadow">
	<g>
		<g>
			<path style="fill:#F5F5F5;" d="M464.65,460.364c0,3.387-93.517,6.132-208.875,6.132S46.9,463.751,46.9,460.364
				c0-3.387,93.517-6.132,208.875-6.132S464.65,456.977,464.65,460.364z"/>
		</g>
	</g>
</g>
<g id="Speech_Bubble">
	<g>
		<path style="fill:#407BFF;" d="M408.344,151.93h-33.676c-3.449,0-6.245,2.796-6.245,6.245v24.392c0,3.449,2.796,6.245,6.245,6.245
			h4.233v7.59l6.168-7.59h23.275c3.449,0,6.245-2.796,6.245-6.245v-24.392C414.589,154.726,411.793,151.93,408.344,151.93z"/>
		<g>
			<path style="fill:#FFFFFF;" d="M383.154,166.856c1.949-0.298,3.604,1.357,3.306,3.306c-0.186,1.215-1.179,2.208-2.394,2.394
				c-1.95,0.299-3.605-1.357-3.306-3.307C380.946,168.035,381.939,167.042,383.154,166.856z M389.531,169.25
				c-0.299,1.95,1.356,3.606,3.306,3.307c1.215-0.186,2.208-1.179,2.394-2.394c0.298-1.949-1.356-3.604-3.306-3.306
				C390.71,167.042,389.717,168.035,389.531,169.25z M398.303,169.25c-0.299,1.95,1.356,3.606,3.306,3.307
				c1.215-0.186,2.208-1.179,2.394-2.394c0.298-1.949-1.356-3.604-3.306-3.306C399.482,167.042,398.489,168.035,398.303,169.25z"/>
		</g>
		<g>
			<g>
				<path style="fill:#407BFF;" d="M375.171,150.603c7.325,0,14.65,0,21.975,0c0.483,0,0.483-0.75,0-0.75c-7.325,0-14.65,0-21.975,0
					C374.688,149.853,374.688,150.603,375.171,150.603L375.171,150.603z"/>
			</g>
		</g>
	</g>
</g>
<g id="Character_2">
	<g>
		<g>
			<path style="fill:#B97964;" d="M303.66,271.106c0.178-0.03,7.506,3.674,7.506,3.674l3.516-8.533l-5.917,0.044
				c0,0-5.401,4.697-5.253,4.756"/>
			<g>
				<g>
					<g>
						<g>
							<g>
								<path style="fill:#B97964;" d="M309.068,266.39c0,0-0.112-2.736-1.795-4.25c-1.683-1.514-2.624-3.172-3.953-4.211
									c-1.329-1.039-0.889,1.195-0.414,2.336c0.475,1.141,1.001,2.439,0.087,2.657c-0.915,0.218-8.673-2.069-9.907-1.623
									c-1.234,0.447-0.095,1.209-0.095,1.209s-1.743-0.5-2.304,0.193c-0.561,0.693,0.44,1.336,0.44,1.336
									s-1.182-0.295-1.294,0.563c-0.112,0.857,5.836,3.684,6.037,3.956c0,0-2.994-2.29-3.84-1.563
									c-0.846,0.727,1.238,2.042,2.878,3.126c1.64,1.084,3.719,1.707,5.713,1.469c1.993-0.238,5.462,0.41,6.688-1.559
									C308.533,268.06,309.068,266.39,309.068,266.39z"/>
							</g>
						</g>
					</g>
				</g>
				<g style="opacity:0.2;">
					<g>
						<g>
							<g>
								<g>
									<path d="M291.326,264.288c1.988,0.584,3.955,1.233,5.882,1.949c-0.174,0.513-0.302,1.031-0.402,1.565
										c-0.041,0.266,0.373,0.231,0.424-0.027c0.29-1.61,0.956-3.161,1.959-4.587c0.162-0.231-0.179-0.402-0.341-0.171
										c-0.251,0.356-0.474,0.711-0.679,1.081c-0.012-0.035-0.041-0.06-0.079-0.075c-1.461-0.674-3.007-1.168-4.637-1.484
										c-0.248-0.042-0.396,0.351-0.138,0.401c1.594,0.309,3.111,0.788,4.535,1.447c0.056,0.022-0.209,0.605-0.156,0.582
										c-0.259,0.475-0.161,0.378-0.346,0.874c-1.927-0.716-3.884-1.366-5.882-1.949
										C291.224,263.826,291.085,264.218,291.326,264.288z"/>
								</g>
							</g>
						</g>
					</g>
				</g>
				<g style="opacity:0.2;">
					<g>
						<g>
							<g>
								<g>
									<path d="M299.656,265.695c2.4-0.547,4.558,0.331,5.616,2.234c0.118,0.217,0.498-0.006,0.38-0.222
										c-1.144-2.069-3.477-2.977-6.064-2.396C299.322,265.379,299.399,265.753,299.656,265.695z"/>
								</g>
							</g>
						</g>
					</g>
				</g>
			</g>
			<path style="fill:#407BFF;" d="M342.689,241.431c-0.425,0-0.848,0.094-1.22,0.299c-3.48,1.918-5.088,5.077-6.198,8.919
				c-2.378,8.232-4.771,18.322-4.771,18.322s-16.401-3.77-20.171-4.321l-3.128,8.743c0,0,21.654,10.113,23.777,10.679
				c6.277,1.674,9.509-9.185,9.509-9.185L342.689,241.431L342.689,241.431z"/>
			<path style="opacity:0.3;" d="M335.484,283.075l-1.994-17.813v18.985C333.49,284.247,334.771,283.589,335.484,283.075z"/>
		</g>
		<g>
			<path style="fill:#263238;" d="M376.115,234.253c0.774-7.214-4.483-5.439-3.796-14.663c0.757-10.156-8.898-12.698-8.898-12.698
				s-3.337-4.461-7.967-5.71c-5.931-1.601-21.074,2.306-17.597,15.142c2.073,7.653,0.804,7.34-0.345,10.539
				c-1.626,4.528,2.287,10.742-2.028,13.488c0,0,16.569-0.34,34.284,0.684C369.769,241.035,375.643,238.658,376.115,234.253z"/>
			<path style="fill:#B97964;" d="M362.874,240.698c0,0-2.956,1.454-6.6,4.594c-0.759,0.654-1.595,1.22-2.48,1.69
				c-2.388,1.268-4.565,1.994-5.154,0.843c-0.131-0.253-0.232-0.527-0.306-0.815c-0.501-1.928-0.295-4.638,1.263-5.879
				c1.757-1.399,2.604-2.595,2.288-4.489c-0.166-1.073-0.555-2.181-1.009-3.257l2.029-1.218l7.232-7.298
				C359.309,229.344,359.065,238.053,362.874,240.698z"/>
			<path style="opacity:0.2;" d="M351.943,237.059c1.989-1.181,4.171-3.229,3.909-5.568c-0.116-0.985-0.329-1.919-0.565-2.517
				l-4.04,5.349C351.579,235.184,351.7,235.754,351.943,237.059z"/>
			<path style="fill:#B97964;" d="M361.537,216.641c-0.681,7.431-0.812,10.582-4.646,14.478c-5.768,5.861-14.641,3.889-16.169-3.476
				c-1.375-6.629-0.031-17.667,7.264-20.79C355.173,203.776,362.217,209.21,361.537,216.641z"/>
			<path style="fill:#263238;" d="M353.463,216.321c-0.095,0.011-0.191-0.017-0.264-0.085c-1.145-1.06-2.434-0.688-2.449-0.684
				c-0.191,0.056-0.384-0.052-0.428-0.247c-0.043-0.195,0.078-0.399,0.272-0.458c0.067-0.02,1.685-0.489,3.105,0.827
				c0.142,0.131,0.145,0.363,0.007,0.518C353.639,216.268,353.552,216.311,353.463,216.321z"/>
			<path style="fill:#263238;" d="M342.12,215.309c-0.075-0.025-0.137-0.081-0.17-0.162c-0.068-0.168,0.015-0.382,0.184-0.477
				c1.698-0.955,2.957-0.229,3.01-0.197c0.149,0.089,0.186,0.3,0.08,0.471c-0.105,0.171-0.311,0.238-0.46,0.151
				c-0.049-0.029-1.035-0.576-2.385,0.184C342.293,215.327,342.199,215.335,342.12,215.309z"/>
			<path style="fill:#A24E3F;" d="M346.578,218.675c0,0-1.163,2.781-2.474,4.515c-0.229,0.303-0.087,0.745,0.269,0.877
				c0.918,0.338,1.991,0.032,1.991,0.032L346.578,218.675z"/>
			<g>
				<path style="fill:#263238;" d="M350.735,219.283c-0.036,0.786-0.462,1.432-0.951,1.442c-0.488,0.01-0.855-0.619-0.818-1.405
					c0.036-0.786,0.462-1.432,0.951-1.442C350.405,217.868,350.771,218.497,350.735,219.283z"/>
				<path style="fill:#263238;" d="M350.128,217.911l-1.705-0.403C348.423,217.508,349.355,218.779,350.128,217.911z"/>
			</g>
			<g>
				<path style="fill:#263238;" d="M343.814,219.254c-0.037,0.762-0.462,1.388-0.949,1.398c-0.487,0.01-0.852-0.599-0.815-1.361
					c0.037-0.762,0.462-1.387,0.949-1.398C343.486,217.883,343.851,218.492,343.814,219.254z"/>
				<path style="fill:#263238;" d="M343.175,217.911l-1.705-0.403C341.469,217.508,342.402,218.78,343.175,217.911z"/>
			</g>
			<path style="fill:#263238;" d="M358.958,219.207c0,0-3.833-5.77-3.635-10.442c0,0-7.337-1.913-13.188,5.904
				c-0.932,1.245-1.488,3.321-2.322,5.112c0,0-1.401-14.138,11.145-15.297c12.526-1.157,14.988,16.453,8.877,22.378
				C359.834,226.863,361.331,222.818,358.958,219.207z"/>
			<g>
				<path style="fill:#B97964;" d="M363.785,222.697c-0.878,1.524-2.304,2.481-3.611,2.809c-1.967,0.493-2.982-2.669-2.311-4.64
					c0.605-1.774,2.537-2.948,4.451-2.561C364.199,218.686,364.788,220.954,363.785,222.697z"/>
				
					<path style="opacity:0.2;fill:none;stroke:#000000;stroke-width:0.5;stroke-linecap:round;stroke-linejoin:round;stroke-miterlimit:10;" d="
					M359.629,222.301c0.047-0.704,0.383-1.384,0.913-1.849c0.53-0.465,1.248-0.71,1.952-0.665"/>
			</g>
			<g>
				<path style="fill:#263238;" d="M347.661,225.705c0.692-0.307,2.03-1.206,2.99-1.452c0.559-0.143,1.082,0.367,1.091,0.945l0,0
					c0.001,0.066-0.002,0.131-0.014,0.196c-0.161,0.877-0.844,1.863-2.768,2.637c-0.145,0.063-0.294,0.119-0.443,0.174
					c0,0-0.878-1.481-1.533-2.215C346.984,225.989,347.251,225.891,347.661,225.705z"/>
				<path style="fill:#FFFFFF;" d="M346.996,225.973l0.469,0.641c1.878-0.76,3.098-1.547,3.458-2.353
					c-0.242-0.26-2.482,1.036-2.482,1.036C348.116,225.495,347.979,225.538,346.996,225.973z"/>
				<path style="fill:#FD504E;" d="M348.96,228.03c1.996-0.802,2.657-1.833,2.784-2.733c-0.67,0.299-1.444,0.735-2.04,1.329
					C349.247,227.079,349.044,227.576,348.96,228.03z"/>
			</g>
		</g>
		<g>
			<g>
				<path style="fill:#FFFFFF;" d="M367.849,289.791c0.673-7.636,3.384-21.629,8.053-36.325c1.519-4.779-3.548-10.567-3.548-10.567
					s-3.863,0.228-4.505,0.156c-0.703-0.082-1.427-0.154-2.151-0.216c-5.454-0.452-9.919-0.781-14.781-0.503
					c-1.223,0.072-2.477,0.175-3.711,0.277c-0.398,0.041-2.978,0.08-3.366,0.121c0,0-6.992,8.181-7.369,13.957
					c-0.204,3.227-1.763,4.616-1.59,12.334c0.031,5.241,3.835,12.877,4.181,20.246L367.849,289.791z"/>
			</g>
			<path style="fill:#FFFFFF;" d="M348.142,242.916l3.61-4.96l1.719,2.952l6.686-4.513l1.326,1.99l-2.531,7.427
				c0,0-6.327,2.59-6.662,2.59C351.953,248.402,348.142,242.916,348.142,242.916z"/>
			<polygon style="opacity:0.3;" points="347.975,243.148 349.453,246.802 353.126,243.148 355.625,247.439 359.358,245.611 
				355.379,248.761 353.077,244.059 348.865,248.027 			"/>
		</g>
		<g>
			<path style="fill:#407BFF;" d="M375.76,441.767l-0.817,1.138l-1.621-0.699l-1.011,4.998l-6.839,9.552
				c0,0-2.602,0.417-0.552-5.011c0.093-0.247,0.168-0.519,0.217-0.822c0.609-3.247-0.731-9.471-0.731-9.471l3.753-5.241
				c0,0,0.391,0.006,1.057,0.116C370.77,436.587,373.878,437.345,375.76,441.767z"/>
			<path style="opacity:0.2;" d="M375.76,441.767l-0.817,1.138l-1.621-0.699l-1.011,4.998l-6.839,9.552c0,0-2.602,0.417-0.552-5.011
				c0.093-0.247,0.168-0.519,0.217-0.822c0.609-3.247-0.731-9.471-0.731-9.471l3.753-5.241c0,0,0.391,0.006,1.057,0.116
				C370.77,436.587,373.878,437.345,375.76,441.767z"/>
			<path style="fill:#A24E3F;" d="M369.216,436.328c0.008,0.006,0.016,0.011,0.016,0.011c-1.261,0.135-0.155,5.73-0.662,8.869
				c-0.457,2.801-1.664,5.442-3.432,5.716c0.609-3.247-1.587-10.646-1.587-10.646l3.018-4.215
				C366.568,436.064,368.55,436.218,369.216,436.328z"/>
		</g>
		<g>
			<path style="fill:#407BFF;" d="M367.227,456.328l-1.394-0.002l-0.387-1.734l-4.612,2.099h-11.686c0,0-1.858-1.883,3.707-3.384
				c0.253-0.069,0.516-0.167,0.788-0.304c2.967-1.403,7.19-6.14,7.19-6.14h6.412c0,0,0.224,0.324,0.525,0.932
				C368.472,449.217,369.682,452.202,367.227,456.328z"/>
			<path style="fill:#B97964;" d="M367.772,447.794c0,0.01,0,0.02,0,0.02c-0.847-0.951-4.7,3.227-7.521,4.65
				c-2.52,1.266-5.351,1.824-6.606,0.54c2.967-1.403,7.68-7.845,7.68-7.845l5.152,0.157
				C366.475,445.315,367.47,447.186,367.772,447.794z"/>
		</g>
		<g>
			<path style="fill:#263238;" d="M354.67,391.398c-3.181-8.766-7.075-17.389-11.754-24.367
				c19.124-54.86,18.526-79.403,18.526-79.403l-23.03-0.019l-2.454,9.174c0,0-5.754,22.84-7.432,35.951l-4.806,29.149v0.082
				c-0.326,6.053,1.009,12.065,3.874,17.389c3.129,5.817,8.665,12.722,11.703,18.991c3.996,8.273,7.768,16.567,10.99,23.987
				c3.395,7.821,6.157,14.655,7.88,19.403c1.631,0.185,6.555-2.775,7.972-5.457C366.138,436.279,362.652,413.401,354.67,391.398z"/>
			<path style="opacity:0.2;" d="M348.239,350.712c2.805-9.324,5.947-14.638,7.374-21.564c0.012-1.617-5.36-8.536-8.095-11.324
				C347.518,317.824,344.227,331.049,348.239,350.712z"/>
			<path style="opacity:0.2;" d="M350.286,422.332c3.395,7.821,6.157,14.655,7.88,19.403c1.631,0.185,6.555-2.775,7.972-5.457
				c0,0-3.486-22.877-11.468-44.88C353.049,400.483,351.234,411.963,350.286,422.332z"/>
		</g>
		<g>
			<path style="fill:#263238;" d="M344.227,288.129c0,0,8.765,60.598,9.785,74.242c0,0,5.415,66.182,4.444,82.817l12.077,0.587
				c0,0,8.123-50.126,4.016-82.294c-0.356-4.193,3.384-31.543,3.976-42.439c1.423-26.212-9.213-33.413-9.213-33.413L344.227,288.129
				z"/>
		</g>
		<polygon style="opacity:0.2;" points="359.522,289.038 361.442,319.138 378.656,317.086 378.656,313.992 		"/>
		<g>
			<path style="fill:#407BFF;" d="M372.794,281.443l5.12-24.796c1.142-4.563-0.584-3.697-0.522-4.93
				c0.204-3.854-4.47-9.966-4.47-9.966l-11.856-1.46c0,0-2.268,8.189-2.747,23.841c-0.479,15.642,4.094,52.561,4.094,52.561
				l22.15-2.315L372.794,281.443z"/>
			<g>
				<g>
					<path style="fill:#407BFF;" d="M361.372,238.567c0,0-4.584,9.047-2.85,31.814l7.616-16.366l-2.757-4.472l3.658-7.31
						c0,0-3.913-2.517-5.557-3.848L361.372,238.567z"/>
				</g>
				<g style="opacity:0.2;">
					<path d="M361.372,238.567c0,0-4.584,9.047-2.85,31.814l7.616-16.366l-2.757-4.472l3.658-7.31c0,0-3.913-2.517-5.557-3.848
						L361.372,238.567z"/>
				</g>
			</g>
		</g>
		<g>
			<path style="fill:#407BFF;" d="M350.706,239.384c0,0-10.191,12.297-12.694,21.17c-1.646,5.835,1.6,22.645,1.221,27.093
				c-0.624,7.329-3.861,16.3-8.059,29.439l-2.776-0.394l7.646-29.083c0,0-3.538-21.915-2.597-27.399
				c0.941-5.484,9.113-18.78,9.113-18.78l3.73-0.257L350.706,239.384z"/>
			<g>
				<path style="fill:#407BFF;" d="M337.903,270.513c0,0-1.706-5.021-1.394-9.654c0.312-4.633,0.384-8.09,0.384-8.09l5.257-3.885
					l-0.692-4.737c0,0,2.535-1.557,4.89-3.151c1.609-1.09,4.766-2.738,5.181-2.611c0,0-13.426,16.99-13.494,23.942
					C337.971,269.032,337.903,270.513,337.903,270.513z"/>
				<path style="opacity:0.3;" d="M337.903,270.513c0,0-1.706-5.021-1.394-9.654c0.312-4.633,0.384-8.09,0.384-8.09l5.257-3.885
					l-0.692-4.737c0,0,2.535-1.557,4.89-3.151c1.609-1.09,4.766-2.738,5.181-2.611c0,0-13.426,16.99-13.494,23.942
					C337.971,269.032,337.903,270.513,337.903,270.513z"/>
			</g>
		</g>
		<path style="opacity:0.3;" d="M324.945,274.469c0,0,25.162,10.548,32.295,9.524c7.134-1.023,18.739-25.42,18.739-25.42
			l-22.633,20.972l-29.065-5.273"/>
		<g>
			<g>
				<path style="fill:#B97964;" d="M314.254,265.677"/>
				<path style="fill:#B97964;" d="M320.181,263.33c0,0-4.862-15.85-5.927-15.056c-1.065,0.794,0,17.403,0,17.403
					c0.331,0.627,0.753,1.626,2.339,2.119c1.518,0.471,8.844,2.426,8.844,2.426l1.144-6.285L320.181,263.33z"/>
			</g>
			<path style="fill:#407BFF;" d="M372.921,241.75c0,0,9.018,1.398,5.735,12.633c-1.956,6.692-18.953,27.763-23.129,27.932
				s-35.347-9.267-35.347-9.267l2.359-11.014l26.948,5.953l17.151-23.364L372.921,241.75z"/>
		</g>
	</g>
</g>
<g id="Blocks">
	<g>
		<g>
			<polygon style="fill:#407BFF;" points="248.533,151.31 245.949,151.31 229.103,151.31 229.103,228.036 245.949,228.036 
				248.533,228.036 322.675,228.036 322.675,151.31 			"/>
			<rect x="229.103" y="151.31" style="opacity:0.3;fill:#FFFFFF;" width="93.572" height="76.726"/>
			<rect x="229.103" y="151.31" style="opacity:0.3;" width="16.253" height="76.726"/>
			<g>
				<path style="fill:#FFFFFF;" d="M295.599,207.669l-8.241-11.735c-0.765,0.055-1.583,0.109-2.401,0.109h-9.442v11.625h-5.458
					v-38.206h14.9c9.934,0,15.938,5.021,15.938,13.318c0,5.895-3.057,10.152-8.405,12.062l9.06,12.827H295.599z M295.435,182.78
					c0-5.458-3.657-8.569-10.643-8.569h-9.278v17.193h9.278C291.778,191.404,295.435,188.238,295.435,182.78z"/>
			</g>
		</g>
		<path style="opacity:0.3;" d="M229.103,175.597c0,0,26.076,1.031,26.076,0c0-1.032-1.032-24.287,0-24.287
			c1.032,0-26.076,0-26.076,0V175.597z"/>
	</g>
	<g>
		<polygon style="fill:#263238;" points="240.039,228.036 237.456,228.036 220.61,228.036 220.61,304.762 237.456,304.762 
			240.039,304.762 314.182,304.762 314.182,228.036 		"/>
		<rect x="220.61" y="228.036" style="opacity:0.3;fill:#FFFFFF;" width="93.572" height="76.726"/>
		<rect x="220.61" y="228.036" style="opacity:0.3;" width="16.253" height="76.726"/>
		<g>
			<path style="fill:#FFFFFF;" d="M285.904,274.844h-20.304l-4.203,9.552h-5.622l17.302-38.207h5.404l17.357,38.207h-5.732
				L285.904,274.844z M283.994,270.478l-8.242-18.722l-8.241,18.722H283.994z"/>
		</g>
	</g>
	<g>
		<polygon style="fill:#263238;" points="241.86,304.051 239.277,304.051 222.431,304.051 222.431,380.777 239.277,380.777 
			241.86,380.777 316.003,380.777 316.003,304.051 		"/>
		<rect x="222.431" y="304.051" style="opacity:0.3;" width="16.253" height="76.726"/>
		<g>
			<path style="fill:#FFFFFF;" d="M296.24,322.204v38.206h-4.476l-22.924-28.491v28.491h-5.458v-38.206h4.476l22.924,28.49v-28.49
				H296.24z"/>
		</g>
	</g>
	<g>
		<polygon style="fill:#407BFF;" points="248.949,380.777 246.366,380.777 229.52,380.777 229.52,457.503 246.366,457.503 
			248.949,457.503 323.092,457.503 323.092,380.777 		"/>
		<rect x="229.52" y="380.777" style="opacity:0.3;" width="16.253" height="76.726"/>
		<g>
			<path style="fill:#FFFFFF;" d="M270.473,398.93h16.1c12.281,0,20.632,7.75,20.632,19.103c0,11.354-8.351,19.104-20.632,19.104
				h-16.1V398.93z M286.246,432.388c9.442,0,15.501-5.786,15.501-14.355c0-8.569-6.059-14.354-15.501-14.354h-10.315v28.71H286.246z
				"/>
		</g>
	</g>
</g>
<g id="Character_1">
	<g>
		<g>
			<g>
				<g>
					<path style="fill:#FAAC6D;" d="M220.924,136.007c0.204-2.376-6.673-1.083-7.544-1.401c0,0,4.189-0.288,6.173-0.527
						c2.73-0.771-0.534-1.879-1.055-1.686c3.267-2.302-9.266-1.847-9.494-2.464c-0.795-0.465,0.069-1.532,0.839-2.466
						c3.344-4.962-2.495-0.579-4.629,0.512c-1.177,0.55-1.966,1.645-2.42,2.46l-4.833,0.104l-0.438,7.674l6.663-0.402l-0.014-0.101
						c2.555,1.535,6.899,1.339,10.358,1.273c7.649,0.052,2.261-2.409-0.456-1.74C214.341,137.044,220.785,136.842,220.924,136.007z"
						/>
					
						<path style="opacity:0.3;fill:none;stroke:#000000;stroke-width:0.25;stroke-linecap:round;stroke-linejoin:round;stroke-miterlimit:10;" d="
						M218.266,132.387c-1.544-0.016-3.088,0.038-4.627,0.163"/>
					
						<path style="opacity:0.3;fill:none;stroke:#000000;stroke-width:0.25;stroke-linecap:round;stroke-linejoin:round;stroke-miterlimit:10;" d="
						M212.657,137.438c0.544-1.919,0.507-3.997-0.103-5.896"/>
					
						<path style="opacity:0.3;fill:none;stroke:#000000;stroke-width:0.25;stroke-linecap:round;stroke-linejoin:round;stroke-miterlimit:10;" d="
						M208.426,130.778c-0.239,1.634-1.731,2.941-3.382,2.962"/>
				</g>
			</g>
			<g>
				<path style="fill:#407BFF;" d="M141.167,101.732c9.556,2.734,32.06,26.036,32.06,26.036l27.74,2.026l1.048,9.092
					c0,0-28.372,1.662-32.861,0.971c-4.488-0.691-25.035-18.698-25.035-18.698L141.167,101.732z"/>
			</g>
			<path style="opacity:0.5;fill:#FFFFFF;" d="M141.167,101.732c9.556,2.734,32.06,26.036,32.06,26.036l27.74,2.026l1.048,9.092
				c0,0-28.372,1.662-32.861,0.971c-4.488-0.691-25.035-18.698-25.035-18.698L141.167,101.732z"/>
			<path style="opacity:0.1;enable-background:new    ;" d="M154.864,130.201c-2.902-2.331-5.653-4.654-7.656-6.354
				c-0.673-2.497-0.677-4.84-1.074-7.658C146.134,116.188,153.88,122.367,154.864,130.201z"/>
		</g>
		<path style="fill:#407BFF;" d="M141.167,101.732c0,0,10.357,23.079,13.697,64.274l-43.888,3.219
			c-0.797-6.101,0.697-36.226-7.493-64.552c4.338-1.2,8.749-2.118,13.206-2.747c5.611-0.761,11.261-1.201,16.923-1.316
			C137.506,100.683,137.33,101.058,141.167,101.732z"/>
		<path style="opacity:0.5;fill:#FFFFFF;" d="M141.167,101.732c0,0,10.357,23.079,13.697,64.274l-43.888,3.219
			c-0.797-6.101,0.697-36.226-7.493-64.552c4.338-1.2,8.749-2.118,13.206-2.747c5.611-0.761,11.261-1.201,16.923-1.316
			C137.506,100.683,137.33,101.058,141.167,101.732z"/>
		<g>
			<g>
				<polygon style="fill:#263238;" points="83.522,460.351 73.747,460.377 102.149,338.509 111.422,340.655 				"/>
				<polygon style="opacity:0.3;fill:#FFFFFF;enable-background:new    ;" points="83.522,460.351 73.747,460.377 102.149,338.509 
					111.422,340.655 				"/>
			</g>
			<g>
				<rect x="189.07" y="338.541" style="fill:#263238;" width="9.518" height="121.823"/>
				<rect x="189.07" y="338.541" style="opacity:0.3;fill:#FFFFFF;enable-background:new    ;" width="9.518" height="121.823"/>
			</g>
			<g>
				<rect x="148.62" y="338.541" style="fill:#263238;" width="9.518" height="121.823"/>
				<rect x="148.62" y="338.541" style="opacity:0.1;fill:#FFFFFF;enable-background:new    ;" width="9.518" height="121.823"/>
			</g>
			<g>
				<rect x="97.526" y="338.541" style="fill:#263238;" width="103.517" height="8.285"/>
				<rect x="97.526" y="338.541" style="opacity:0.5;fill:#FFFFFF;enable-background:new    ;" width="103.517" height="8.285"/>
				<rect x="97.971" y="338.541" style="opacity:0.3;fill:#FFFFFF;" width="56.341" height="8.285"/>
			</g>
			<g>
				<rect x="84.9" y="380.574" style="fill:#263238;" width="85.506" height="8.285"/>
				<rect x="84.9" y="380.574" style="opacity:0.5;fill:#FFFFFF;enable-background:new    ;" width="85.506" height="8.285"/>
				<polyline style="opacity:0.3;fill:#FFFFFF;" points="84.9,388.859 84.9,380.574 133.3,380.574 133.3,388.859 				"/>
			</g>
			<g>
				<rect x="73.747" y="424.455" style="fill:#263238;" width="88.582" height="8.285"/>
				<rect x="73.747" y="424.455" style="opacity:0.5;fill:#FFFFFF;enable-background:new    ;" width="88.582" height="8.285"/>
				<rect x="73.747" y="424.455" style="opacity:0.3;fill:#FFFFFF;" width="45.583" height="8.285"/>
			</g>
			<g>
				<polygon style="fill:#263238;" points="135.917,460.351 126.142,460.377 154.544,338.509 163.817,340.655 				"/>
				<polygon style="opacity:0.3;fill:#FFFFFF;enable-background:new    ;" points="135.917,460.351 126.142,460.377 
					154.544,338.509 163.817,340.655 				"/>
			</g>
		</g>
		<g>
			<g>
				<g>
					<polygon style="fill:#407BFF;" points="104.831,327.345 107.629,304.853 121.891,307.853 113.454,333.024 					"/>
					<polygon style="opacity:0.7;fill:#FFFFFF;" points="104.831,327.345 107.629,304.853 121.891,307.853 113.454,333.024 					"/>
				</g>
				<g>
					<g>
						<g>
							<g>
								<g>
									<g>
										<g>
											<g>
												<g>
													<g>
														<g>
															<path style="fill:#263238;" d="M103.493,338.275l7.657,0.336c0,0,1.187-0.591,1.884-0.512
																c0.695,0.081,3.112,0.516,3.112,0.516l15.314,0.098c-0.124-0.614-0.279-1.16-0.454-1.645
																c-0.214-0.591-0.462-1.091-0.737-1.515c-0.966-1.481-2.007-2.091-3.44-2.177c-2.183-0.131-9.053-4.443-9.053-4.443
																s-1.69-0.693-1.471-3.178c0.076-0.861,0.602-1.663-0.946-2.15c-1.372-0.432-3.577,0.497-3.785,1.835
																c-0.359,0.635-0.179,1.334,0.029,2.036l-4.631-0.964c0,0-3.35-1.586-3.188-0.048c0.093,0.878-1.13,4.456-0.777,7.557
																c0.083,0.723,0.16,1.407,0.228,2.007l0.002,0C103.387,337.36,103.493,338.275,103.493,338.275z"/>
														</g>
													</g>
												</g>
											</g>
										</g>
									</g>
									<g>
										<path style="opacity:0.7;fill:#FFFFFF;" d="M131.459,338.714l-15.314-0.098c0,0-2.418-0.435-3.112-0.516
											c-0.697-0.08-1.884,0.512-1.884,0.512l-7.657-0.336c0,0-0.105-0.915-0.256-2.247l27.77,1.041
											C131.181,337.555,131.335,338.101,131.459,338.714z"/>
									</g>
									<g>
										<g>
											<g>
												<g>
													<path style="fill:#FFFFFF;" d="M121.196,330.536c-0.072-0.066-0.184-0.074-0.268-0.021
														c-0.386,0.24-0.711,0.58-0.932,1.007c-0.116,0.225,0.233,0.442,0.351,0.215c0.196-0.379,0.48-0.679,0.818-0.89
														c0.113-0.07,0.131-0.218,0.034-0.307C121.198,330.538,121.197,330.537,121.196,330.536z"/>
												</g>
											</g>
										</g>
									</g>
									<g>
										<g>
											<g>
												<g>
													<path style="fill:#FFFFFF;" d="M119.956,329.849c-0.072-0.066-0.184-0.074-0.268-0.021
														c-0.386,0.24-0.711,0.58-0.932,1.007c-0.116,0.225,0.233,0.442,0.351,0.215c0.196-0.379,0.48-0.679,0.818-0.89
														c0.113-0.07,0.132-0.218,0.035-0.307C119.958,329.851,119.957,329.85,119.956,329.849z"/>
												</g>
											</g>
										</g>
									</g>
									<g>
										<g>
											<g>
												<g>
													<path style="fill:#FFFFFF;" d="M118.676,329.208c-0.072-0.066-0.184-0.074-0.268-0.021
														c-0.386,0.241-0.711,0.58-0.932,1.007c-0.116,0.225,0.233,0.442,0.351,0.215c0.196-0.379,0.48-0.679,0.818-0.89
														c0.113-0.071,0.131-0.218,0.035-0.308C118.679,329.21,118.677,329.208,118.676,329.208z"/>
												</g>
											</g>
										</g>
									</g>
								</g>
							</g>
						</g>
					</g>
				</g>
			</g>
			<g>
				<g>
					<polygon style="fill:#407BFF;" points="177.493,328.496 175.902,305.887 190.475,306.081 187.049,332.407 					"/>
					<polygon style="opacity:0.7;fill:#FFFFFF;" points="177.493,328.496 175.902,305.887 190.475,306.081 187.049,332.407 					"/>
				</g>
				<g>
					<g>
						<g>
							<g>
								<g>
									<g>
										<g>
											<g>
												<g>
													<g>
														<g>
															<path style="fill:#263238;" d="M176.198,338.513l7.661,0.202c0,0,1.177-0.612,1.875-0.544
																c0.696,0.068,3.121,0.461,3.121,0.461l15.313-0.17c-0.135-0.611-0.299-1.155-0.482-1.636
																c-0.224-0.587-0.481-1.083-0.764-1.502c-0.992-1.464-2.044-2.055-3.478-2.116c-2.185-0.093-9.129-4.284-9.129-4.284
																s-1.701-0.663-1.527-3.152c0.061-0.863,0.573-1.673-0.984-2.134c-1.38-0.408-3.568,0.56-3.752,1.901
																c-0.347,0.642-0.156,1.337,0.064,2.035l-4.647-0.883c0,0-3.377-1.527-3.188,0.007
																c0.108,0.876-1.052,4.476-0.645,7.57c0.096,0.721,0.184,1.404,0.263,2.002l0.001,0
																C176.077,337.6,176.198,338.513,176.198,338.513z"/>
														</g>
													</g>
												</g>
											</g>
										</g>
									</g>
									<g>
										<path style="opacity:0.7;fill:#FFFFFF;" d="M204.168,338.462l-15.313,0.17c0,0-2.425-0.393-3.121-0.461
											c-0.698-0.068-1.875,0.544-1.875,0.544l-7.662-0.202c0,0-0.121-0.913-0.296-2.242l27.784,0.555
											C203.87,337.307,204.033,337.851,204.168,338.462z"/>
									</g>
									<g>
										<g>
											<g>
												<g>
													<path style="fill:#FFFFFF;" d="M193.763,330.465c-0.073-0.065-0.185-0.071-0.268-0.017
														c-0.382,0.247-0.701,0.593-0.914,1.023c-0.112,0.227,0.241,0.438,0.355,0.209c0.189-0.382,0.468-0.688,0.802-0.904
														c0.111-0.072,0.128-0.22,0.029-0.308C193.765,330.467,193.764,330.466,193.763,330.465z"/>
												</g>
											</g>
										</g>
									</g>
									<g>
										<g>
											<g>
												<g>
													<path style="fill:#FFFFFF;" d="M192.511,329.8c-0.073-0.065-0.185-0.071-0.268-0.017
														c-0.382,0.247-0.701,0.593-0.914,1.023c-0.112,0.227,0.241,0.438,0.354,0.209c0.19-0.382,0.468-0.688,0.802-0.904
														c0.111-0.073,0.128-0.221,0.029-0.308C192.513,329.802,192.512,329.801,192.511,329.8z"/>
												</g>
											</g>
										</g>
									</g>
									<g>
										<g>
											<g>
												<g>
													<path style="fill:#FFFFFF;" d="M191.221,329.181c-0.073-0.065-0.185-0.071-0.268-0.017
														c-0.382,0.247-0.701,0.593-0.914,1.023c-0.112,0.227,0.241,0.438,0.355,0.209c0.189-0.382,0.468-0.688,0.802-0.904
														c0.112-0.073,0.128-0.221,0.029-0.308C191.223,329.182,191.222,329.181,191.221,329.181z"/>
												</g>
											</g>
										</g>
									</g>
								</g>
							</g>
						</g>
					</g>
				</g>
			</g>
			<path style="fill:#263238;" d="M103.236,319.808l16.785,3.618c0,0,16.61-56.205,18.891-70.236s1.158-48.033,1.158-48.033l0,0
				l-0.003,0.058c0.52,0.793,5.093,8.098,10.349,16.564c6.869,11.103,14.925,24.216,16.585,27.41
				c4.912,9.405,7.697,73.827,7.697,73.827l18.839,0.13c0,0,1.124-56.098-4.475-76.415c-5.599-20.317-33.876-75.264-33.876-75.264
				l-0.323-5.461l-43.942,3.158c0,0,0.113,6.719-0.185,12.571c-1.106,21.956,4.748,52.074,4.948,60.081
				C116.092,257.102,103.236,319.808,103.236,319.808z"/>
		</g>
		<path style="opacity:0.2;enable-background:new    ;" d="M140.068,205.18L140.068,205.18l-0.003,0.058
			c0.52,0.793,5.093,8.098,10.349,16.564c1.687-8.955-2.731-21.403-10.349-26.404L140.068,205.18z"/>
		<g>
			<path style="fill:#FAAC6D;" d="M116.853,83.808c1.664,5.309,3.824,15.141,0.431,19.193c5.45,1.626,9.361,2.711,14.217,6.185
				c1.2-3.511,1.371-8.292,1.371-8.292c-4.733-0.59-5.266-5.051-4.677-9.36L116.853,83.808z"/>
			<path style="opacity:0.2;enable-background:new    ;" d="M121.475,86.945l6.665,4.551c-0.146,1.01-0.206,2.031-0.179,3.051
				c-2.307-0.066-5.806-2.259-6.323-4.658C121.404,88.925,121.35,87.928,121.475,86.945z"/>
			<path style="fill:#263238;" d="M131.785,66.246c1.918,1.625,2.247,5.471,2.624,7.837c0.353,2.216,0.948,5.093-2.202,2.285
				S124.942,61.188,131.785,66.246z"/>
			<path style="opacity:0.2;enable-background:new    ;" d="M119.185,92.267c0,0,3.099,5.334,9.192,4.737
				c-0.674-2.409-0.236-4.549,0.069-5.884c-0.47-0.142,0.078-0.855,0.078-0.855L119.185,92.267z"/>
			<path style="fill:#FAAC6D;" d="M119.198,92.655c3.959,2.595,8.276,3.006,11.739,0.827c2.228-1.398,3.978-3.651,4.704-6.423
				c0.1-0.363,0.175-0.739,0.238-1.124c1.054-7.032-0.973-18.323-8.744-20.726c-5.53-1.752-11.447,1.312-13.197,6.851
				c-0.509,1.572-0.623,3.245-0.36,4.881C114.686,84.553,114.573,89.623,119.198,92.655z"/>
			<path style="fill:#263238;" d="M125.378,78.519c0.013,0.802,0.545,1.417,1.079,1.37c0.534-0.047,0.892-0.74,0.828-1.542
				c-0.064-0.801-0.558-1.417-1.079-1.371C125.685,77.024,125.314,77.705,125.378,78.519z"/>
			<path style="fill:#263238;" d="M132.4,78.037c0.013,0.802,0.558,1.417,1.079,1.37c0.521-0.047,0.892-0.74,0.828-1.542
				c-0.064-0.801-0.558-1.417-1.079-1.37C132.707,76.542,132.337,77.274,132.4,78.037z"/>
			<path style="fill:#E97F3F;" d="M130.23,77.973c0.907,1.844,2.065,3.554,3.441,5.081c-0.814,0.695-1.894,0.995-2.95,0.818
				L130.23,77.973z"/>
			<path style="fill:#263238;" d="M134.8,74.235c-0.114,0.077-0.26,0.087-0.383,0.027c-0.823-0.445-1.807-0.475-2.655-0.082
				c-0.175,0.101-0.398,0.041-0.499-0.134c-0.101-0.175-0.041-0.398,0.134-0.499c0,0,0.001-0.001,0.001-0.001
				c1.06-0.524,2.308-0.502,3.348,0.059c0.182,0.087,0.26,0.304,0.174,0.487c-0.001,0.003-0.003,0.005-0.004,0.008
				C134.885,74.151,134.845,74.196,134.8,74.235z"/>
			<path style="fill:#263238;" d="M123.754,75.381c-0.074,0.004-0.147-0.015-0.21-0.055c-0.146-0.139-0.151-0.371-0.012-0.517
				c0.002-0.002,0.004-0.004,0.006-0.006c0.813-0.864,1.996-1.277,3.17-1.109c0.198,0.04,0.325,0.233,0.285,0.431l0,0.001
				c-0.045,0.195-0.235,0.321-0.432,0.285l0,0c-0.93-0.106-1.856,0.234-2.497,0.918C123.973,75.392,123.859,75.41,123.754,75.381z"
				/>
			<g>
				<path style="fill:#263238;" d="M127.97,85.147c-1.48-0.315-2.876-0.942-4.094-1.839c-0.112,0.235-0.188,0.486-0.227,0.743
					c-0.082,0.456-0.051,0.926,0.091,1.367c0.29,0.902,1.137,1.851,3.325,2.332c0.16,0.044,0.322,0.079,0.486,0.106
					c0.34-0.872,0.743-1.718,1.205-2.532C128.756,85.325,128.458,85.271,127.97,85.147z"/>
				<path style="fill:#FFFFFF;" d="M123.913,83.305c-0.112,0.235-0.188,0.486-0.227,0.743c0.502,0.769,1.888,1.368,3.947,1.84
					l0.375-0.744C126.527,84.829,125.132,84.202,123.913,83.305z"/>
				<path style="fill:#FD504E;" d="M126.065,86.434c-0.709-0.473-1.497-0.817-2.325-1.016c0.29,0.902,1.137,1.851,3.325,2.332
					C126.877,87.218,126.527,86.758,126.065,86.434z"/>
			</g>
			<path style="fill:#263238;" d="M129.541,61.377c-5.42-1.358-18.462,1.953-19.774,4.614c-0.641,1.123-0.728,2.467-0.26,3.653
				c-2.857,2.779,0.775,14.266,6.912,13.491c3.911-0.486,3.214-2.006,2.958-2.356c-1.17-1.513-0.263-3.978,0.675-7.158
				c0.37-1.253-0.42-2.461-1.768-3.368c1.793-2.218,4.962-2.923,7.567-1.525c0,0,4.405,2.304,6.453-2.856
				c0.08-0.226,0.136-0.46,0.167-0.698C132.71,63.316,131.398,61.617,129.541,61.377z"/>
			<g>
				<path style="fill:#FAAC6D;" d="M110.773,83.513c0.999,1.66,2.617,2.856,4.497,3.326c2.494,0.604,3.651-1.65,2.891-3.961
					c-0.696-2.047-2.826-4.899-5.297-4.45C110.393,78.877,109.572,81.46,110.773,83.513z"/>
				<path style="opacity:0.1;fill:none;stroke:#000000;stroke-width:0.5;stroke-miterlimit:10;" d="M116.556,83.537
					c-0.32-1.271-1.228-2.381-2.411-2.945c-0.503-0.24-1.17-0.358-1.565,0.035"/>
			</g>
		</g>
		<path style="opacity:0.1;enable-background:new    ;" d="M118.673,168.603l-7.696,0.61c-0.474-3.725-0.105-16.493-1.634-32.342
			c3.142-7.071,4.966-16.782,4.966-16.782c4.876,6.962,10.346,16.663,13.864,23.493
			C132.418,151.757,127.065,163.423,118.673,168.603z"/>
		<g>
			<g>
				<polygon style="fill:#407BFF;" points="177.688,93.723 175.105,93.723 158.259,93.723 158.259,170.449 175.105,170.449 
					177.688,170.449 251.831,170.449 251.831,93.723 				"/>
				<g>
					<path style="fill:#FFFFFF;" d="M233.582,139.766c0,6.55-4.967,10.316-14.627,10.316h-18.23v-38.206h17.138
						c8.788,0,13.7,3.711,13.7,9.879c0,4.148-2.128,7.04-5.13,8.514C230.745,131.47,233.582,134.69,233.582,139.766z
						 M206.183,116.296v12.226h11.189c5.567,0,8.733-2.074,8.733-6.113c0-4.039-3.165-6.113-8.733-6.113H206.183z M228.07,139.33
						c0-4.421-3.274-6.386-9.333-6.386h-12.554v12.717h12.554C224.795,145.661,228.07,143.751,228.07,139.33z"/>
				</g>
			</g>
			<rect x="158.259" y="93.724" style="opacity:0.3;" width="19.429" height="76.726"/>
		</g>
		<g>
			<path style="fill:#407BFF;" d="M115.283,103.05c0,0,3.166-6.028,3.583-5.999c0.418,0.028,9.257,4.044,9.257,4.044l0.626-3.647
				l4.627,3.555l-1.561,9.869L115.283,103.05z"/>
			<path style="opacity:0.5;fill:#FFFFFF;" d="M115.283,103.05c0,0,3.166-6.028,3.583-5.999c0.418,0.028,9.257,4.044,9.257,4.044
				l0.626-3.647l4.627,3.555l-1.561,9.869L115.283,103.05z"/>
			<path style="opacity:0.1;enable-background:new    ;" d="M115.814,102.054c0,0,9.507,5.746,9.557,5.769
				c0.05,0.024,1.982-4.413,1.982-4.413l-1.173,5.776L115.814,102.054z"/>
		</g>
		<path style="fill:#407BFF;" d="M127.42,103.473l-0.839,2.988l1.684,2.634c1.697,0.126,11.033,42.845,7.284,58.84l8.873,5.561
			l2.649-6.137c0.76-13.596-10.719-53.037-16.567-58.85l0.788-3.8l0,0l-2.328-1.702L127.42,103.473z"/>
		<g>
			<g>
				<path style="fill:#407BFF;" d="M103.483,104.673c-10.741,5.827,4.55,40.521,7.547,45.746c2.997,5.225,46.69,5.714,46.69,5.714
					l-0.381-10.095l-35.304-4.77l-8.895-26.75C109.576,105.979,103.483,104.673,103.483,104.673z"/>
				<path style="opacity:0.5;fill:#FFFFFF;" d="M103.483,104.673c-10.741,5.827,4.55,40.521,7.547,45.746
					c2.997,5.225,46.69,5.714,46.69,5.714l-0.381-10.095l-35.304-4.77l-8.895-26.75
					C109.576,105.979,103.483,104.673,103.483,104.673z"/>
			</g>
			<g>
				<g>
					<path style="fill:#FAAC6D;" d="M160.247,146.657c0,0,7.212,1.063,8.062,2.579c0.85,1.516-1.63,1.583-1.63,1.583
						s2.734,0.095,2.85,1.261c0.14,1.4-2.459,1.457-2.459,1.457s2.229,0.169,2.263,1.213c0.035,1.083-2.893,1.357-2.893,1.357
						s1.547,0.416,1.16,1.155c-0.387,0.739-6.581,1.42-8.512,0.414c-1.927-1.004-2.725-7.913-2.163-10.459
						c0.385-1.744,1.613-3.839,3.321-4.161V146.657L160.247,146.657z"/>
				</g>
				<g>
					<path style="opacity:0.2;" d="M167.076,150.753c-0.004,0-0.008,0-0.011,0l-4.758-0.393c-0.064-0.006-0.112-0.069-0.108-0.141
						c0.004-0.073,0.062-0.128,0.123-0.122l4.758,0.394c0.064,0.006,0.112,0.069,0.108,0.141
						C167.184,150.699,167.135,150.752,167.076,150.753z"/>
				</g>
				<g>
					<path style="opacity:0.2;" d="M167.332,153.475c-0.001,0-0.002,0-0.003,0l-4.6-0.014c-0.064,0-0.116-0.059-0.116-0.132
						c0-0.073,0.042-0.119,0.116-0.132l4.6,0.014c0.064,0,0.116,0.059,0.116,0.132C167.444,153.416,167.394,153.473,167.332,153.475
						z"/>
				</g>
				<g>
					<path style="opacity:0.2;" d="M166.68,156.045l-3.418,0.087c-0.064,0.001-0.117-0.056-0.119-0.129
						c-0.002-0.072,0.048-0.133,0.112-0.135l3.419-0.087c0.064-0.002,0.117,0.056,0.119,0.129
						C166.794,155.983,166.744,156.044,166.68,156.045z"/>
				</g>
			</g>
		</g>
	</g>
</g>
</svg>
