<svg width="1343" height="151" viewBox="0 0 1343 151" fill="none" xmlns="http://www.w3.org/2000/svg">
<path d="M0.384013 148.074V2.78047H77.1821C102.505 2.78047 119.732 19.8006 119.732 42.6325C119.732 56.3316 113.506 67.7475 103.335 74.8047C114.959 81.6542 121.808 93.6928 121.808 108.222C121.808 131.054 104.58 148.074 79.2578 148.074H0.384013ZM24.2537 125.035H76.767C89.2208 125.035 96.9006 116.732 96.9006 105.939C96.9006 94.9382 89.2208 86.8433 76.767 86.8433H47.2931V64.0114H74.6914C87.1451 64.0114 94.8249 55.7089 94.8249 44.9157C94.8249 33.9148 87.1451 25.8199 74.6914 25.8199H24.2537V125.035ZM135.381 148.074V68.9929H208.235C220.896 68.9929 229.822 60.0677 229.822 47.4064C229.822 34.7451 220.896 25.6123 208.235 25.6123H135.381V2.78047H209.273C235.841 2.78047 254.729 20.4233 254.729 45.1232C254.729 60.0677 247.88 72.3139 236.671 79.7862C247.88 86.6357 254.729 98.6743 254.729 113.411V148.074H230.859V111.128C230.859 99.9197 222.972 92.0323 211.764 92.0323H159.25V148.074H135.381ZM338.897 150.15C296.555 150.15 264.175 117.77 264.175 75.4273C264.175 33.0846 296.555 0.704847 338.897 0.704847C381.24 0.704847 413.62 33.0846 413.62 75.4273C413.62 117.77 381.24 150.15 338.897 150.15ZM289.082 75.4273C289.082 104.694 310.254 127.11 338.897 127.11C367.541 127.11 388.712 104.694 388.712 75.4273C388.712 45.9535 367.541 23.7443 338.897 23.7443C310.254 23.7443 289.082 45.9535 289.082 75.4273ZM427.063 148.074V68.9929H499.917C512.578 68.9929 521.504 60.0677 521.504 47.4064C521.504 34.7451 512.578 25.6123 499.917 25.6123H427.063V2.78047H500.955C527.523 2.78047 546.411 21.2535 546.411 47.4064C546.411 73.3517 527.523 92.0323 500.955 92.0323H450.932V148.074H427.063ZM886.447 25.8199H832.896V2.78047H963.66V25.8199H910.317V148.074H886.447V25.8199ZM1084.18 86.8433H1012.98C1000.53 86.8433 992.849 94.9382 992.849 105.939C992.849 116.732 1000.53 125.035 1012.98 125.035H1084.18V148.074H1010.7C985.169 148.074 967.941 131.054 967.941 108.222C967.941 94.108 974.376 82.4845 985.377 75.4273C974.376 68.3702 967.941 56.7467 967.941 42.6325C967.941 19.8006 985.169 2.78047 1010.7 2.78047H1084.18V25.8199H1012.98C1000.53 25.8199 992.849 33.9148 992.849 44.9157C992.849 55.7089 1000.53 64.0114 1012.98 64.0114H1084.18V86.8433ZM1166.26 148.074C1125.16 148.074 1093.61 116.525 1093.61 75.4273C1093.61 34.33 1125.16 2.78047 1166.26 2.78047H1207.77V25.8199H1167.3C1138.66 25.8199 1118.52 47.1988 1118.52 75.4273C1118.52 103.656 1138.66 125.035 1167.3 125.035H1207.77V148.074H1166.26ZM1221.23 2.78047H1245.1V63.8038H1318.79V2.78047H1342.66V148.074H1318.79V86.8433H1245.1V148.074H1221.23V2.78047Z" fill="white"/>
<path d="M610.707 2.78047H634.577V148.074H610.707V2.78047ZM653.273 148.074V2.78047H720.731C752.903 2.78047 774.697 24.1594 774.697 56.3316V148.074H750.828V56.3316C750.828 37.651 739.412 25.8199 720.731 25.8199H677.143V148.074H653.273Z" fill="#3827C7"/>
</svg>
