<svg width="514" height="456" viewBox="0 0 514 456" fill="none" xmlns="http://www.w3.org/2000/svg">
<path d="M256.308 0H201.511C187.285 0 174.512 8.71802 169.327 21.9665L18.4515 407.538C9.58232 430.204 26.2962 454.692 50.6354 454.692H108.056C122.358 454.692 135.182 445.884 140.314 432.535L288.566 46.9632C297.269 24.3267 280.56 0 256.308 0Z" fill="#3827C7"/>
<path d="M231.917 271.926L245.165 236.804C254.247 212.727 285.515 206.664 302.936 225.603L460.684 397.084C481.062 419.237 465.349 455.042 435.249 455.042H211.821C187.553 455.042 170.843 430.687 179.576 408.045L191.768 376.436C196.91 363.106 209.725 354.314 224.013 354.314H264.899C273.646 354.314 277.836 343.569 271.398 337.648L240.858 309.56C230.479 300.014 226.941 285.12 231.917 271.926Z" fill="#3827C7"/>
</svg>
