<svg width="321" height="285" viewBox="0 0 321 285" fill="none" xmlns="http://www.w3.org/2000/svg">
<path d="M160.068 0H125.847C116.962 0 108.985 5.44452 105.747 13.7184L11.5232 254.513C5.98428 268.668 16.4223 283.962 31.6225 283.962H67.4827C76.414 283.962 84.4228 278.461 87.6281 270.124L180.213 29.3292C185.649 15.1924 175.214 0 160.068 0Z" fill="#FDC448"/>
<path d="M144.836 169.821L153.109 147.887C158.781 132.85 178.308 129.064 189.188 140.892L287.703 247.984C300.43 261.819 290.617 284.18 271.819 284.18H132.285C117.13 284.18 106.694 268.97 112.148 254.829L119.762 235.089C122.973 226.764 130.976 221.273 139.899 221.273H165.433C170.896 221.273 173.512 214.563 169.491 210.865L150.419 193.324C143.937 187.363 141.728 178.061 144.836 169.821Z" fill="#FDC448"/>
</svg>
