<svg width="606" height="74" viewBox="0 0 606 74" fill="none" xmlns="http://www.w3.org/2000/svg">
<path d="M0.417748 59V7.94231H42.7227C54.0283 7.94231 61.687 15.4551 61.687 26.7607V59H53.2989V26.7607C53.2989 20.1962 49.2872 16.0386 42.7227 16.0386H35.064V59H26.676V16.0386H8.8058V59H0.417748ZM101.416 40.9839H80.1908C76.9085 40.9839 74.7933 43.1721 74.7933 46.0897C74.7933 49.0802 76.9085 51.2684 80.1908 51.2684H101.416V59H79.8261C72.0216 59 66.4052 53.6754 66.4052 46.4544C66.4052 42.5886 68.0099 39.3063 70.7087 37.1181C68.0099 34.857 66.4052 31.5747 66.4052 27.7089C66.4052 20.4879 72.0216 15.2363 79.8261 15.2363H101.416V22.9679H80.1908C76.9085 22.9679 74.7933 25.156 74.7933 28.0736C74.7933 31.0642 76.9085 33.2523 80.1908 33.2523H101.416V40.9839ZM139.738 40.9839H118.513C115.23 40.9839 113.115 43.1721 113.115 46.0897C113.115 49.0802 115.23 51.2684 118.513 51.2684H139.738V59H118.148C110.343 59 104.727 53.6754 104.727 46.4544C104.727 42.5886 106.332 39.3063 109.03 37.1181C106.332 34.857 104.727 31.5747 104.727 27.7089C104.727 20.4879 110.343 15.2363 118.148 15.2363H139.738V22.9679H118.513C115.23 22.9679 113.115 25.156 113.115 28.0736C113.115 31.0642 115.23 33.2523 118.513 33.2523H139.738V40.9839ZM158.074 59C150.27 59 144.726 53.5295 144.726 46.0897V7.94231H152.75V15.2363H169.526V22.9679H152.75V46.0897C152.75 49.0802 154.792 51.2684 158.147 51.2684H169.526V59H158.074Z" fill="#FDC448"/>
<path d="M203.733 16.0386H184.915V7.94231H230.867V16.0386H212.121V59H203.733V16.0386ZM234.907 59V0.648357H242.93V15.2363H253.507C264.229 15.2363 272.106 22.9679 272.106 33.69V59H264.083V33.8359C264.083 27.4901 259.706 22.9679 253.507 22.9679H242.93V59H234.907ZM311.687 40.9839H290.462C287.18 40.9839 285.064 43.1721 285.064 46.0897C285.064 49.0802 287.18 51.2684 290.462 51.2684H311.687V59H290.097C282.293 59 276.676 53.6754 276.676 46.4544C276.676 42.5886 278.281 39.3063 280.98 37.1181C278.281 34.857 276.676 31.5747 276.676 27.7089C276.676 20.4879 282.293 15.2363 290.097 15.2363H311.687V22.9679H290.462C287.18 22.9679 285.064 25.156 285.064 28.0736C285.064 31.0642 287.18 33.2523 290.462 33.2523H311.687V40.9839Z" fill="white"/>
<path d="M375.931 37.4828H350.913C346.536 37.4828 343.838 40.3275 343.838 44.1933C343.838 47.9861 346.536 50.9037 350.913 50.9037H375.931V59H350.11C341.139 59 335.085 53.019 335.085 44.9956C335.085 40.0357 337.346 35.9511 341.212 33.4712C337.346 30.9912 335.085 26.9066 335.085 21.9467C335.085 13.9234 341.139 7.94231 350.11 7.94231H375.931V16.0386H350.913C346.536 16.0386 343.838 18.8832 343.838 22.749C343.838 26.5419 346.536 29.4595 350.913 29.4595H375.931V37.4828ZM380.715 46.0897C380.715 38.7228 386.258 33.3253 393.99 33.2523L380.715 15.2363H390.562L403.764 33.2523H408.505C411.86 33.2523 413.902 31.0642 413.902 28.0736V15.2363H421.926V28.0736C421.926 35.5135 416.382 40.9839 408.651 40.9839L421.926 59H412.079L398.95 40.9839H394.136C390.853 40.9839 388.738 43.1721 388.738 46.0897V59H380.715V46.0897ZM428.51 73.5879V15.2363H447.693C460.677 15.2363 470.45 24.5725 470.45 37.1181C470.45 49.6637 460.677 59 447.693 59H436.534V73.5879H428.51ZM436.534 51.2684H447.693C455.79 51.2684 462.062 45.2874 462.062 37.1181C462.062 28.9489 455.79 22.9679 447.693 22.9679H436.534V51.2684ZM508.353 40.9839H487.128C483.846 40.9839 481.73 43.1721 481.73 46.0897C481.73 49.0802 483.846 51.2684 487.128 51.2684H508.353V59H486.763C478.959 59 473.342 53.6754 473.342 46.4544C473.342 42.5886 474.947 39.3063 477.646 37.1181C474.947 34.857 473.342 31.5747 473.342 27.7089C473.342 20.4879 478.959 15.2363 486.763 15.2363H508.353V22.9679H487.128C483.846 22.9679 481.73 25.156 481.73 28.0736C481.73 31.0642 483.846 33.2523 487.128 33.2523H508.353V40.9839ZM513.488 28.0736C513.488 20.6338 519.104 15.2363 526.909 15.2363H537.704V22.9679H526.909C523.626 22.9679 521.511 25.156 521.511 28.0736V59H513.488V28.0736ZM554.897 59C547.092 59 541.549 53.5295 541.549 46.0897V7.94231H549.572V15.2363H566.348V22.9679H549.572V46.0897C549.572 49.0802 551.615 51.2684 554.97 51.2684H566.348V59H554.897ZM571.121 59V51.2684H591.617C594.973 51.2684 597.015 49.0802 597.015 46.0897C597.015 43.1721 594.973 40.9839 591.617 40.9839H582.354C574.55 40.9839 568.933 35.5135 568.933 28.0736C568.933 20.6338 574.55 15.2363 582.354 15.2363H603.215V22.9679H582.719C579.436 22.9679 577.321 25.156 577.321 28.0736C577.321 31.0642 579.436 33.2523 582.719 33.2523H592.055C599.86 33.2523 605.403 38.6499 605.403 46.0897C605.403 53.5295 599.86 59 592.055 59H571.121Z" fill="#3827C7"/>
</svg>
