<svg width="744" height="73" viewBox="0 0 744 73" fill="none" xmlns="http://www.w3.org/2000/svg">
<path d="M26.9703 58.7294C12.0906 58.7294 0.712026 47.3508 0.712026 32.4712C0.712026 17.5915 12.0906 6.21292 26.9703 6.21292C41.8499 6.21292 53.2285 17.5915 53.2285 32.4712C53.2285 47.3508 41.8499 58.7294 26.9703 58.7294ZM9.46477 32.4712C9.46477 42.7556 16.9046 50.6331 26.9703 50.6331C37.0359 50.6331 44.4758 42.7556 44.4758 32.4712C44.4758 22.1137 37.0359 14.3092 26.9703 14.3092C16.9046 14.3092 9.46477 22.1137 9.46477 32.4712ZM95.0058 14.2363V58H76.4062C65.6841 58 57.8066 50.2684 57.8066 39.5463V14.2363H65.83V39.3275C65.83 45.7462 70.2063 50.2684 76.4062 50.2684H86.9824V14.2363H95.0058ZM101.545 27.0736C101.545 19.6338 107.162 14.2363 114.966 14.2363H125.761V21.9679H114.966C111.684 21.9679 109.569 24.156 109.569 27.0736V58H101.545V27.0736ZM471.158 58V30.21H496.76C501.209 30.21 504.345 27.0736 504.345 22.6243C504.345 18.175 501.209 14.9657 496.76 14.9657H471.158V6.94231H497.124C506.461 6.94231 513.098 13.4339 513.098 22.6243C513.098 31.7418 506.461 38.3063 497.124 38.3063H479.546V58H471.158ZM517.101 27.0736C517.101 19.6338 522.718 14.2363 530.522 14.2363H541.317V21.9679H530.522C527.24 21.9679 525.125 24.156 525.125 27.0736V58H517.101V27.0736ZM564.107 58.7294C551.124 58.7294 541.277 49.1014 541.277 36.1181C541.277 23.1349 551.124 13.5069 564.107 13.5069C577.09 13.5069 586.864 23.1349 586.864 36.1181C586.864 49.1014 577.09 58.7294 564.107 58.7294ZM549.665 36.1181C549.665 44.725 555.938 50.9978 564.107 50.9978C572.203 50.9978 578.476 44.725 578.476 36.1181C578.476 27.5113 572.203 21.2385 564.107 21.2385C555.938 21.2385 549.665 27.5113 549.665 36.1181ZM591.608 14.2363H599.631V72.5879H591.608V14.2363ZM590.806 5.77528C590.806 3.07652 592.921 0.961265 595.62 0.961265C598.391 0.961265 600.507 3.07652 600.507 5.77528C600.507 8.54698 598.391 10.6622 595.62 10.6622C592.921 10.6622 590.806 8.54698 590.806 5.77528ZM639.398 39.9839H618.172C614.89 39.9839 612.775 42.1721 612.775 45.0897C612.775 48.0802 614.89 50.2684 618.172 50.2684H639.398V58H617.807C610.003 58 604.387 52.6754 604.387 45.4544C604.387 41.5886 605.991 38.3063 608.69 36.1181C605.991 33.857 604.387 30.5747 604.387 26.7089C604.387 19.4879 610.003 14.2363 617.807 14.2363H639.398V21.9679H618.172C614.89 21.9679 612.775 24.156 612.775 27.0736C612.775 30.0642 614.89 32.2523 618.172 32.2523H639.398V39.9839ZM664.809 58C652.19 58 642.708 48.6637 642.708 36.1181C642.708 23.4996 652.19 14.2363 664.809 14.2363H675.531V21.9679H665.174C656.859 21.9679 651.096 27.7301 651.096 36.1181C651.096 44.5062 656.859 50.2684 665.174 50.2684H675.531V58H664.809ZM692.779 58C684.974 58 679.431 52.5295 679.431 45.0897V6.94231H687.454V14.2363H704.231V21.9679H687.454V45.0897C687.454 48.0802 689.497 50.2684 692.852 50.2684H704.231V58H692.779ZM709.004 58V50.2684H729.5C732.855 50.2684 734.897 48.0802 734.897 45.0897C734.897 42.1721 732.855 39.9839 729.5 39.9839H720.236C712.432 39.9839 706.815 34.5135 706.815 27.0736C706.815 19.6338 712.432 14.2363 720.236 14.2363H741.097V21.9679H720.601C717.319 21.9679 715.203 24.156 715.203 27.0736C715.203 30.0642 717.319 32.2523 720.601 32.2523H729.937C737.742 32.2523 743.285 37.6499 743.285 45.0897C743.285 52.5295 737.742 58 729.937 58H709.004Z" fill="white"/>
<path d="M146.206 21.3114C146.206 12.9234 152.552 6.94231 161.67 6.94231H173.413C182.53 6.94231 188.876 12.9234 188.876 21.3114V58H180.488V37.9416H154.595V58H146.206V21.3114ZM154.595 29.8453H180.488V21.749C180.488 17.8832 177.789 15.0386 173.413 15.0386H161.67C157.293 15.0386 154.595 17.8832 154.595 21.749V29.8453ZM195.426 58V14.2363H238.825C248.745 14.2363 255.966 21.3114 255.966 31.2312V58H247.943V31.3771C247.943 25.5419 244.296 21.9679 238.825 21.9679H229.708V58H221.685V21.9679H203.45V58H195.426ZM273.98 58C266.176 58 260.559 52.5295 260.559 45.0897C260.559 37.6499 266.176 32.2523 273.98 32.2523H290.829V27.0736C290.829 24.156 288.787 21.9679 285.432 21.9679H262.747V14.2363H285.505C293.309 14.2363 298.852 19.6338 298.852 27.0736V58H273.98ZM268.583 45.0897C268.583 48.0802 270.698 50.2684 273.98 50.2684H290.829V39.9839H273.98C270.698 39.9839 268.583 42.1721 268.583 45.0897ZM304.312 45.0897C304.312 37.6499 309.928 32.2523 317.732 32.2523H327.36C330.716 32.2523 332.758 30.0642 332.758 27.0736V21.9679H304.312V14.2363H340.781V27.0736C340.781 34.5135 335.238 39.9839 327.433 39.9839H317.732C314.45 39.9839 312.335 42.1721 312.335 45.0897V50.2684H340.781V58H304.312V45.0897ZM346.22 58V14.2363H354.244V58H346.22ZM345.418 5.77528C345.418 3.07652 347.533 0.961265 350.305 0.961265C353.004 0.961265 355.119 3.07652 355.119 5.77528C355.119 8.54698 353.004 10.6622 350.305 10.6622C347.533 10.6622 345.418 8.54698 345.418 5.77528ZM360.823 58V14.2363H379.422C390.144 14.2363 398.022 21.9679 398.022 32.69V58H389.998V32.8359C389.998 26.4901 385.622 21.9679 379.422 21.9679H368.846V58H360.823ZM425.422 50.4143C433.518 50.4143 439.791 44.2144 439.791 35.7534C439.791 27.2195 433.518 21.0196 425.422 21.0196C417.253 21.0196 410.98 27.2195 410.98 35.7534C410.98 44.2144 417.253 50.4143 425.422 50.4143ZM402.592 72.5879V64.8563H421.629V57.7082C410.542 56.1036 402.592 47.2779 402.592 35.7534C402.592 22.989 412.439 13.5069 425.422 13.5069C438.405 13.5069 448.179 22.989 448.179 35.7534C448.179 47.2049 440.302 55.9577 429.361 57.7082V64.8563H448.179V72.5879H402.592ZM438.478 11.0269C438.478 8.32816 440.593 6.21292 443.365 6.21292C446.064 6.21292 448.179 8.32816 448.179 11.0269C448.179 13.7986 446.064 15.9139 443.365 15.9139C440.593 15.9139 438.478 13.7986 438.478 11.0269Z" fill="#FDC448"/>
</svg>
