<svg width="701" height="504" viewBox="0 0 701 504" fill="none" xmlns="http://www.w3.org/2000/svg">
<g clip-path="url(#clip0_76_3)">
<path d="M851.067 34.2662L831.067 68.6663L791.2 69.0663L751.333 69.4663L731.333 104L711.333 138.666L672.133 138.933L633.067 139.333L613.067 173.6L593.067 208L568.133 207.866C554.533 207.733 537.467 207.333 530.267 206.8L517.2 206L498.133 172.666L479.067 139.333L439.2 138.933L399.333 138.533L379.6 103.866L359.733 69.333H318.933H278L258 104L238 138.533L198.133 138.933L158.133 139.333L137.733 174.4L117.333 209.466L137.733 245.066L158.133 280.666L198 281.066L238 281.466L254 309.6C262.8 325.066 271.467 340.4 273.2 343.466L276.4 349.2L258 380.933C247.867 398.4 238.8 413.6 237.733 414.666C236.133 416.4 230.4 416.533 198.267 416.133L160.667 415.733L140.533 450.266L120.533 484.666L80.6666 485.333L40.8 486L20.4 520.666C9.19997 539.733 0.266639 556 0.399972 556.8C0.533305 557.6 9.59997 574 20.6666 593.2L40.6666 628H80.2666H119.733L138.533 660.8C148.933 678.933 157.333 694.133 157.333 694.666C157.333 695.333 148.8 710.4 138.533 728.133C128.133 745.866 119.333 761.333 119.067 762.533C118.8 763.733 127.467 780.266 138.4 799.333L158.4 834L198.133 834.666L238 835.333L257.467 869.2L276.933 903.2L265.6 922.533C259.467 933.2 250.533 948.666 245.733 956.933L237.067 971.733L257.467 1007.2L277.867 1042.67H317.467H356.933L376.8 1077.33L396.533 1112H438H479.333L498 1079.73C508.267 1062 517.6 1046.4 518.667 1044.93C520.667 1042.53 522.267 1042.53 558 1043.6L595.2 1044.67L614.533 1078.4L633.733 1112H673.333H712.933L732.8 1146.67L752.533 1181.33H793.467H834.4L854.667 1146.67L874.933 1112H914.4H954L974 1077.33L994 1042.8L1031.47 1042.67H1068.93L1088.8 1077.33L1108.53 1112H1148.13H1187.87L1207.6 1146.67L1227.33 1181.33L1268.53 1181.07L1309.87 1180.67L1329.87 1146.27L1349.87 1112H1389.47H1428.93L1449.07 1077.33C1460.27 1058.27 1469.33 1041.87 1469.2 1041.07C1469.2 1040.13 1460.27 1024 1449.47 1005.33L1429.87 971.333L1414.53 970.533C1406.13 970 1388.13 969.6 1374.53 969.466L1349.73 969.333L1330.13 935.066C1315.73 910 1310.8 900.266 1311.6 898.533C1312.13 897.333 1320.8 882.533 1330.67 865.466L1348.67 834.666H1388.27H1427.73L1448 800L1468.27 765.333L1507.6 765.066L1547.07 764.666L1567.07 730.133L1587.2 695.6L1626.4 696.133L1665.73 696.666L1685.6 662.666C1696.53 644 1705.87 628 1706.13 627.2C1706.53 626.266 1697.73 609.6 1686.53 590.133L1666.27 554.666H1626.8H1587.33L1567.33 520L1547.33 485.333H1506L1464.67 485.466L1444.67 520L1424.67 554.666H1402.53C1390.4 554.666 1373.2 554.266 1364.27 553.733L1348.13 552.933L1328.4 518.533L1308.67 484H1269.07H1229.6L1210.67 451.066L1191.87 418L1194.27 413.866C1195.6 411.6 1204.13 396.8 1213.33 380.933L1230 352.133L1271.33 352H1312.67L1333.07 316.666L1353.47 281.466L1333.33 246.266L1313.07 210.933L1272.27 210C1235.2 209.066 1231.33 209.2 1229.87 211.2C1229.07 212.4 1220 227.866 1209.87 245.333L1191.33 277.333L1151.47 277.066L1111.6 276.666L1092.53 243.333C1082 224.933 1073.33 209.733 1073.33 209.333C1073.33 208.933 1082.27 193.333 1093.07 174.666L1112.93 140.8L1092.67 105.466L1072.4 69.9996L1032.53 69.5996L992.667 69.333L972.933 34.6663L953.2 -0.000366211H912.133H871.067L851.067 34.2662ZM969.2 36.7996C979.467 54.7996 988 70.2662 988 70.933C988 72.2662 953.733 131.866 950.267 136.4C948.8 138.4 945.2 138.533 910.8 137.6L872.8 136.666L853.867 103.733L835.067 70.7996L854.4 37.333L873.733 3.99963H912H950.267L969.2 36.7996ZM344 74.6663H358L372.933 101.066C381.2 115.466 389.733 130.4 391.867 134L395.733 140.666L376.133 174L356.667 207.333L319.2 207.733C284.8 208 281.6 207.866 279.733 205.733C275.733 201.066 242.533 141.333 242.933 139.466C243.2 138.533 251.733 123.2 262 105.333L280.667 73.0663L305.333 73.8663C318.933 74.2662 336.267 74.6663 344 74.6663ZM850.267 107.066L869.333 140.266L850.133 173.066L831.067 206H792.8H754.533L735.2 172.533L716 139.2L735.067 106.266L754 73.4663L792.667 73.7329L831.333 73.9996L850.267 107.066ZM1088.13 106.266C1098.53 124.533 1107.07 139.866 1107.07 140.666C1107.07 141.333 1098.4 156.8 1087.87 174.933L1068.8 207.866L1030.67 207.066C998.133 206.4 992.4 206 990.933 204.266C990 203.066 981.467 188.4 971.867 171.6C956.267 144.533 954.533 140.8 955.733 138C957.467 134.133 990.533 77.333 992.4 74.933C993.333 73.7329 1002.8 73.333 1031.33 73.333H1069.07L1088.13 106.266ZM256.933 176C267.333 194 275.6 209.466 275.2 210.533C274.8 211.6 266.4 226.8 256.267 244.133L238 275.866L199.333 276H160.667L141.467 242.666L122.4 209.333L132.667 191.733C138.4 182 147.2 166.933 152.267 158.266L161.467 142.666L199.733 142.933L238 143.333L256.933 176ZM495.067 176C511.2 204.266 513.333 208.666 512.133 211.2C511.2 212.8 502.267 228.133 492.267 245.333L473.867 276.666L436.933 276.933L400 277.2L396.8 272.266C392.133 265.066 361.333 210.933 361.333 209.866C361.333 209.2 369.067 195.733 393.067 154.8L400.4 142.266L438.4 142.933L476.533 143.6L495.067 176ZM731.6 176.8L750.8 210.266L731.733 243.066L712.667 276L674 275.6L635.467 275.333L616.4 242.133L597.467 208.8L599.867 204.8C602.267 200.933 617.2 175.333 630.533 152.266L636.133 142.666L674.267 142.933L712.4 143.333L731.6 176.8ZM968.667 175.466C978.933 193.466 987.333 208.933 987.333 210C987.333 210.933 978.933 226.266 968.667 243.866L950 276H911.733H873.6L854.667 243.066C843.6 223.733 836.133 209.066 836.4 207.733C836.8 206.533 845.333 191.333 855.333 174L873.6 142.666H911.867H950L968.667 175.466ZM374.667 243.466C384.533 260.8 393.2 276.133 393.867 277.466C394.8 279.333 390.8 287.2 376 312.666L356.933 345.333H318.133H279.2L260.8 312.933C250.533 295.2 242.267 280 242.267 279.333C242.267 278.533 250.8 263.066 261.467 244.933L280.667 212H318.667H356.667L374.667 243.466ZM612.933 245.333L631.867 278.533L612.533 312L593.067 345.333H555.467H518L498.933 312L479.867 278.8L492.133 257.733C498.8 246.133 507.6 231.066 511.6 224.266L518.8 212H556.4L594 212.133L612.933 245.333ZM850.4 246.133L869.467 279.733L850.4 312.533L831.333 345.333L792.8 344.933L754.267 344.666L735.733 312.266C725.6 294.4 717.333 279.066 717.6 278C717.867 277.066 726.4 261.866 736.667 244.133L755.333 212L793.333 212.266L831.2 212.666L850.4 246.133ZM1058.27 213.2L1070.67 214L1089.33 246.533L1108 278.933L1088.4 312.8L1068.67 346.666L1040 346.533C1024.27 346.4 1006.93 346 1001.73 345.466L992 344.666L973.2 312C957.067 283.866 954.667 279.066 955.867 276.4C957.467 272.8 990.533 216 992.4 213.6C993.733 211.866 1034.8 211.466 1058.27 213.2ZM1329.33 248.133L1348.4 281.466L1345.87 285.866C1344.53 288.266 1335.87 303.2 1326.67 319.066L1310 347.866L1271.33 348H1232.53L1213.47 314.533C1198.8 288.933 1194.67 280.533 1195.47 278.8C1196.13 277.466 1204.8 262.533 1214.67 245.466L1232.67 214.666H1271.47H1310.4L1329.33 248.133ZM442 282.666H475.733L494.533 315.733C504.8 333.866 513.333 349.333 513.333 349.866C513.333 350.533 504.8 365.733 494.533 383.6L475.733 416L437.6 415.733L399.467 415.333L380.267 381.733L361.067 348.133L373.333 327.066C403.2 276.133 399.867 280.933 404.267 281.866C406.533 282.266 423.467 282.666 442 282.666ZM731.733 314.8L750.8 348.266L742.667 362.533C738.133 370.266 729.467 385.2 723.467 395.6L712.667 414.533L674.667 414.666H636.667L617.733 381.333C607.2 363.066 598.667 347.333 598.667 346.533C598.667 345.866 602.933 338 608 329.2C613.2 320.533 621.6 306.133 626.667 297.333L636.133 281.333H674.4H712.667L731.733 314.8ZM969.333 314.666C984.133 340.666 988.133 348.666 987.2 350.533C986.533 351.866 977.867 366.8 968 383.866L950 414.666H912H873.867L854.8 381.333C844.4 362.933 836 347.466 836.267 346.8C836.533 346.133 845.067 331.2 855.333 313.466L874 281.333H912.133H950.4L969.333 314.666ZM1206.27 312.666C1216 329.466 1224.53 344.666 1225.47 346.133C1226.8 348.666 1224.67 352.933 1207.87 381.866L1188.67 414.666H1149.87H1110.93L1092.13 381.6L1073.33 348.4L1092.8 314.933L1112.4 281.333L1150.53 281.6L1188.67 282L1206.27 312.666ZM376 384C387.733 404.666 394.667 418.133 394.133 419.466C392.933 422.533 358.533 481.733 356.8 483.6C355.6 484.933 346.533 485.066 318 484.4L280.667 483.6L264.667 455.6C255.867 440.133 247.2 425.066 245.467 421.866L242.4 416.266L261.467 383.466L280.667 350.666H318.8H357.067L376 384ZM580.133 352H594.4L613.2 384.8C623.6 402.8 631.733 418 631.6 418.4C631.333 418.933 622.533 434.133 612 452.4L592.933 485.333L555.6 485.066L518.4 484.666L499.2 451.466C488.8 433.066 480.4 417.866 480.533 417.466C486.267 407.333 515.867 356.933 517.733 354.133L520.533 350.266L543.2 351.066C555.733 351.6 572.4 352 580.133 352ZM850.533 384.133C868.267 415.066 869.467 417.866 868.133 421.066C867.2 422.933 858.667 437.866 849.2 454.266L831.733 484H793.333H754.933L736 450.666C725.6 432.4 717.333 416.933 717.6 416.266C717.733 415.6 726.4 400.533 736.667 382.933L755.333 350.666H793.333H831.333L850.533 384.133ZM1086.67 381.6C1096.53 398.666 1105.07 413.6 1105.73 414.8C1106.67 416.266 1102.13 425.066 1087.6 450.133L1068.27 483.333L1030.53 483.733L992.667 484L974 451.2C963.733 433.2 955.333 417.733 955.333 416.933C955.333 416 963.733 400.8 974 383.066L992.667 350.8L1030.8 350.666H1068.93L1086.67 381.6ZM492.667 449.6C502 466 510.667 481.2 512.133 483.333L514.533 487.333L495.467 520L476.533 552.666H438H399.467L380.4 519.466L361.333 486.266L379.467 454.8C389.6 437.466 398.4 422.533 399.067 421.6C400 420.4 409.467 420 438 420H475.733L492.667 449.6ZM732 453.333L751.067 486.666L742.667 501.066C738.133 508.933 729.467 523.866 723.467 534.266L712.667 553.2H674.667H636.667L618.133 520.666C608 502.8 599.6 487.733 599.467 487.333C599.467 486.933 608 471.6 618.667 453.2L638 420H675.467H713.067L732 453.333ZM968.4 452C978.4 469.6 986.8 484.4 986.933 485.066C987.2 485.733 978.667 501.333 968 519.733L948.667 553.2L911.333 553.333H874L854.8 520.133L835.733 486.8L848.133 465.733C854.8 454.133 863.6 439.066 867.6 432.266L874.8 420H912.4H950.133L968.4 452ZM1206.67 452.8C1217.07 470.8 1225.2 486.266 1224.93 487.066C1224.53 488 1215.87 503.066 1205.6 520.666L1186.93 552.666H1148.67H1110.4L1091.87 520.666C1081.6 503.066 1073.47 487.733 1073.6 486.533C1073.87 485.333 1082.4 469.866 1092.67 452.266L1111.33 420H1149.47H1187.73L1206.67 452.8ZM253.733 447.333C261.733 461.2 270.267 476.266 272.667 480.666L277.2 488.666L258.133 521.333L239.2 554L201.067 554.4L162.933 554.666L146.533 526.4C137.6 510.8 128.933 495.6 127.2 492.666L124.133 487.333L140.4 459.333C149.333 443.866 158 429.066 159.6 426.266L162.667 421.333L200.933 421.6L239.2 422L253.733 447.333ZM1068.8 489.733C1070.67 492.133 1105.73 554.4 1105.73 555.333C1105.73 556.933 1069.73 618.533 1067.33 621.2C1065.87 622.666 1059.07 622.8 1028.8 622L992.133 620.933L973.333 588.4L954.667 555.866L971.467 526.933C980.667 511.066 989.733 495.733 991.6 492.8L994.933 487.6L1031.87 488.666C1052.13 489.2 1068.8 489.733 1068.8 489.733ZM1306.93 490.533C1309.33 492.8 1344.13 555.066 1343.73 556.533C1343.47 557.466 1334.93 572.666 1324.67 590.4L1306 622.666L1267.47 622.266L1228.93 622L1209.87 588.666L1190.8 555.333L1193.33 551.333C1194.67 549.2 1203.07 534.666 1212 519.333C1220.93 503.866 1228.8 490.666 1229.47 489.866C1230.67 488.4 1305.2 488.933 1306.93 490.533ZM106.933 490.133L120.933 491.066L139.333 523.2C149.467 540.933 157.733 555.866 157.733 556.666C157.733 557.333 149.067 572.933 138.533 591.066L119.333 624.133L81.6 623.866L43.8666 623.733L40.6666 618.8C39.0666 616.133 30.2666 601.2 21.3333 585.466C7.06664 560.533 5.19997 556.533 6.53331 553.866C8.13331 550.133 41.2 493.333 43.0666 490.933C44.5333 489.2 82 488.666 106.933 490.133ZM596.533 494.266C598.4 497.066 607.333 512.4 616.4 528.4L632.933 557.466L613.6 590.666L594.133 624H582.8C576.533 624 559.2 623.6 544.533 623.066L517.6 622.266L498.8 589.2L479.867 556L492.133 535.066C498.8 523.466 507.6 508.4 511.6 501.6L518.8 489.333H556H593.333L596.533 494.266ZM850.533 522.133C860.933 540.266 869.333 555.6 869.333 556.266C869.333 556.933 860.8 572.266 850.4 590.133L831.467 622.666L793.333 622.4L755.333 622L737.733 591.333C728 574.4 719.467 559.333 718.533 557.866C717.2 555.333 719.333 551.066 736.133 522.133L755.333 489.333H793.6H831.733L850.533 522.133ZM1563.87 522.666L1582.8 556L1563.6 589.066L1544.4 622L1505.87 622.266L1467.33 622.666L1448.27 589.333C1431.33 559.466 1429.47 555.6 1430.8 552.933C1433.87 547.333 1465.73 492.666 1467.07 490.933C1468 489.733 1477.6 489.333 1506.53 489.333H1544.8L1563.87 522.666ZM376.4 523.066C386.4 540.8 394.667 556 394.667 556.666C394.667 557.466 386 572.666 375.467 590.666L356.4 623.333L318.933 623.733L281.6 624L262.8 591.2C252.4 573.2 244 557.733 244 556.933C244 556.133 252.533 540.933 262.8 523.066L281.733 490.666H319.867L358 490.8L376.4 523.066ZM1206.13 591.466L1225.47 625.066L1205.73 658.666L1186.13 692.4L1177.47 691.466C1172.67 691.066 1155.6 690.666 1139.73 690.666H1110.93L1091.87 657.6C1081.47 639.466 1072.93 624 1072.93 623.333C1072.93 622.533 1078.93 611.733 1086.27 599.333C1093.47 586.8 1102 572.266 1105.2 566.933L1110.8 557.333L1148.8 557.6L1186.8 558L1206.13 591.466ZM222.8 559.6L239.6 560.4L258 592.4C268.133 610 276.4 625.066 276.4 625.866C276.4 627.6 240.533 689.2 238.267 691.6C237.067 692.8 227.333 692.933 199.067 692.4L161.333 691.6L142.667 659.066C132.267 641.066 124 626 124.267 625.466C124.533 624.933 133.333 609.733 143.867 591.6L163.067 558.666H184.533C196.4 558.666 213.6 559.066 222.8 559.6ZM494.267 590.666C504.267 607.866 512.667 623.066 512.933 624.266C513.333 625.6 505.867 639.866 494.533 659.333L475.467 692H437.333L399.333 691.866L380.8 659.333C369.2 638.8 362.667 625.866 363.2 624.533C363.867 622.666 394.933 568.8 399.467 561.6L401.467 558.666L438.8 558.933L476.133 559.333L494.267 590.666ZM731.867 592L750.933 625.466L731.067 659.466L711.333 693.6L701.467 692.8C696 692.4 679.2 692 664.133 692H636.667L618 659.2C607.733 641.066 599.467 625.733 599.733 624.933C600 624.266 608.667 608.933 619.067 591.2L638 558.666H675.333H712.8L731.867 592ZM966.4 588C975.467 603.733 984.133 618.933 985.6 621.6L988.4 626.4L969.333 659.2L950.4 692H912.133H873.867L854.8 658.666C844.4 640.266 836 624.8 836.267 624.133C836.533 623.466 845.067 608.533 855.333 590.8L874 558.666L911.867 558.933L949.867 559.333L966.4 588ZM1444.13 591.333C1454.27 608.933 1462.67 624.133 1462.67 625.066C1462.67 626 1454.13 641.333 1443.73 659.333L1424.67 692H1386.67H1348.67L1330.67 660.533C1320.8 643.2 1312.13 627.866 1311.47 626.533C1310.53 624.666 1314.53 616.8 1329.33 591.333L1348.4 558.666L1387.07 558.933L1425.6 559.333L1444.13 591.333ZM1682.4 591.6C1692.8 609.866 1701.33 625.2 1701.33 625.733C1701.33 626.4 1692.8 641.466 1682.4 659.466L1663.33 692H1624.67L1586 691.866L1567.07 658.666L1548.27 625.333L1567.6 592L1587.07 558.666H1625.33H1663.47L1682.4 591.6ZM850.533 660.666C860.933 678.533 869.333 693.733 869.333 694.266C869.333 694.8 860.667 710 850.267 728L831.2 760.666L793.733 761.066L756.267 761.333L737.467 728.666C727.067 710.8 718.667 695.466 718.667 694.666C718.667 693.2 727.2 678.133 748 642.666L757.067 627.333L794.4 627.733L831.867 628.133L850.533 660.666ZM376.267 661.866L395.6 695.6L376.533 728.133L357.6 760.666L319.2 760.933L280.667 761.333L261.733 728.133L242.667 694.933L262.267 661.466L281.733 628H319.333H356.933L376.267 661.866ZM609.867 654.666C618.133 668.933 626.667 684 628.933 688L633.2 695.333L614.133 728L595.2 760.666H556.667H518.133L499.067 727.466C482.533 698.533 480.267 694 481.6 691.466C484.533 685.866 516.4 631.333 517.733 629.6C518.667 628.4 527.6 628 557.067 628.266L595.067 628.666L609.867 654.666ZM1087.6 661.333L1106.53 694.666L1087.07 728L1067.73 761.333H1030.13H992.667L973.6 727.866L954.533 694.4L964.8 676.933C970.4 667.2 979.2 652.266 984.267 643.6L993.467 628H1031.07L1068.67 628.133L1087.6 661.333ZM1325.33 660.933C1335.6 679.066 1343.87 694.533 1343.73 695.333C1343.47 696.266 1334.93 711.466 1324.67 729.066L1306 761.333H1267.87H1229.73L1210.4 727.6L1191.2 693.866L1206.27 667.866C1214.67 653.6 1223.2 638.8 1225.33 634.933L1229.33 628H1267.87H1306.4L1325.33 660.933ZM1563.6 661.866L1582.53 695.066L1563.47 727.866L1544.27 760.666L1505.87 760.933L1467.33 761.333L1448.67 728.533C1438.4 710.533 1430 695.2 1430 694.266C1430 693.333 1438.4 678.133 1448.67 660.4L1467.33 628L1505.87 628.4L1544.53 628.666L1563.6 661.866ZM950.933 698.533C952.667 700.133 988 762.666 988 764.133C988 764.933 979.467 780.266 969.067 798.133L950.133 830.666H912.533H874.933L855.333 796.533L835.867 762.533L854.133 730.933C864.267 713.6 872.933 698.666 873.467 697.866C874.667 696.4 949.2 696.933 950.933 698.533ZM1204.93 727.333C1214.67 744.133 1223.2 759.2 1224 760.666C1225.2 763.066 1222.67 768.133 1205.87 797.2L1186.27 830.933L1148.93 830.4L1111.73 830L1092.67 796.666C1075.73 767.333 1073.73 763.2 1075.07 760.666C1076 759.066 1084.8 743.866 1094.67 726.8L1112.67 695.733L1150 696.266L1187.33 696.666L1204.93 727.333ZM257.6 730.4C267.733 748.266 276 763.6 275.733 764.533C275.467 765.466 266.933 780.8 256.667 798.4L238 830.666L199.467 830.266L160.933 830L141.867 796.666C124.8 766.933 122.933 763.066 124.533 760.666C125.467 759.2 134.133 744.4 143.867 727.6L161.6 697.333L200.267 697.6L239.067 698L257.6 730.4ZM492.667 726.933C502 743.333 510.667 758.533 512 760.666L514.533 764.666L495.467 797.333L476.4 830L437.867 830.266L399.333 830.666L380.4 797.333L361.333 764.133L380.8 730.8L400.267 697.333H438H475.733L492.667 726.933ZM703.333 698.133L714 699.066L733.067 732.4L752 765.733L732.933 798.533L713.867 831.333L687.2 831.733C672.667 831.866 655.333 831.6 648.667 831.066L636.8 830L617.867 797.066L599.067 764.133L618.533 730.8L637.867 697.333H665.333C680.4 697.333 697.467 697.733 703.333 698.133ZM1441.47 725.6C1450.4 741.2 1459.07 756.4 1460.67 759.333L1463.73 764.666L1444.4 797.6L1425.2 830.666H1386.8H1348.53L1329.47 797.333C1319.07 778.933 1310.67 763.466 1310.93 762.8C1311.2 762.133 1319.73 747.2 1330 729.466L1348.67 697.333H1386.93H1425.07L1441.47 725.6ZM1325.07 799.333C1341.6 828 1344 832.933 1342.8 835.6C1340.53 840.666 1307.73 896.533 1306 898.533C1304.67 900 1297.6 900.133 1267.07 899.333L1229.87 898.266L1211.87 866.933C1202.13 849.733 1193.47 834.666 1192.93 833.333C1192 831.6 1196.53 822.933 1210.93 798.133L1230 765.333L1268 765.733L1306 766L1325.07 799.333ZM376.933 800.666C394.133 830.666 395.733 834.133 394.133 836.666C393.2 838.133 384.533 852.933 374.8 869.6L357.067 900H318.667H280.267L261.467 867.2C251.067 849.066 242.667 833.866 242.667 833.2C242.667 832.533 251.2 817.2 261.733 799.333L280.667 766.666L319.2 767.066L357.867 767.333L376.933 800.666ZM614.4 800.133L633.467 833.6L614.267 866.4L595.067 899.333L557.067 899.733L518.933 900L500 867.066C488.933 847.733 481.467 833.066 481.733 831.733C482.133 830.533 490.667 815.333 500.667 798L518.933 766.666H557.2L595.333 766.8L614.4 800.133ZM850.533 799.466C860.933 817.6 869.333 832.933 869.333 833.866C869.333 834.666 860.8 849.866 850.267 867.733L831.333 900.133L794 900C773.467 900 756.267 899.466 755.733 898.933C755.333 898.4 746.667 883.733 736.667 866.266C725.733 847.2 718.8 833.733 719.2 832.4C720 830.666 751.067 776.666 755.467 769.6C757.333 766.666 757.467 766.666 794.533 766.666H831.733L850.533 799.466ZM1088.27 800.666L1107.73 834.666L1088.8 867.066L1069.87 899.333H1031.33H992.8L973.733 866.133C963.333 847.866 954.933 832.533 955.2 832.133C955.867 830.933 973.733 800.266 984 782.666L993.467 766.666H1031.07H1068.8L1088.27 800.666ZM495.733 870.133L514.8 903.733L495.733 936.533L476.667 969.333L438.133 968.933L399.6 968.666L380.533 935.6L361.6 902.4L365.2 896.266C367.2 892.8 375.867 877.866 384.533 862.933L400.267 836L438.4 836.266L476.533 836.666L495.733 870.133ZM733.067 869.333L752 902.8L732.8 935.733L713.6 968.666L675.733 969.066L637.733 969.333L619.2 937.066C609.067 919.333 600.533 904 600.267 903.066C600 902 608.267 886.533 618.8 868.666L637.733 836H675.867H714L733.067 869.333ZM970 868.933C980.267 887.066 988.533 902.4 988.267 903.2C988 904 979.333 919.2 968.933 936.933L950.133 969.333H912.533H874.933L856 936.4C845.733 918.266 837.6 902.666 838 901.6C838.667 899.866 870 845.6 874.133 838.933C876 836 876.133 836 913.733 836L951.333 836.133L970 868.933ZM1207.07 870L1226.4 903.866L1207.47 936.266L1188.67 968.666H1150.13H1111.73L1093.2 936.666C1083.07 919.066 1074.8 903.866 1074.67 902.933C1074.67 901.866 1083.2 886.4 1093.6 868.533L1112.53 836H1150.13H1187.6L1207.07 870ZM376.933 938.666L396 972L376.533 1005.33L357.067 1038.67H318.8H280.533L261.467 1005.2C246.8 979.6 242.667 971.2 243.467 969.466C244.133 968.133 252.8 953.2 262.667 936.133L280.667 905.333H319.333H358L376.933 938.666ZM614.133 938.8L632.933 971.466L613.467 1005.07L594 1038.67L556.133 1038.27L518.267 1038L499.733 1005.6C489.6 987.733 481.333 972.4 481.6 971.466C481.867 970.533 490.4 955.333 500.667 937.6L519.333 905.333L557.333 905.733L595.333 906L614.133 938.8ZM851.6 939.2L870.533 972.4L867.333 977.866C865.6 980.933 856.933 995.6 848.267 1010.67L832.267 1038H793.867H755.467L736.533 1004.93L717.6 971.866L737.067 938.533L756.4 905.333L794.533 905.6L832.533 906L851.6 939.2ZM1088.67 938.133C1098.93 956.266 1107.2 971.6 1106.93 972.4C1106.67 973.066 1098 988.266 1087.73 1006.13L1068.8 1038.67H1031.2H993.6L975.867 1007.6C966.133 990.666 957.333 975.466 956.4 974C954.933 971.466 956.4 968.266 972.133 941.333C981.733 924.8 990.4 910 991.467 908.266C993.333 905.333 993.467 905.333 1031.73 905.333H1070L1088.67 938.133ZM1326.8 938C1336.93 955.6 1345.2 970.666 1345.2 971.333C1345.33 972.133 1336.8 987.466 1326.27 1005.33L1307.33 1038H1268.8H1230.27L1211.87 1006C1201.73 988.4 1193.47 973.2 1193.47 972.266C1193.33 971.333 1201.87 955.866 1212.27 937.866L1231.2 905.333L1269.73 905.6L1308.4 906L1326.8 938ZM1207.2 1007.07C1217.47 1024.8 1225.73 1040 1225.73 1040.67C1225.73 1041.47 1217.2 1056.93 1206.67 1075.07L1187.47 1108H1149.47H1111.33L1092.27 1074.67C1075.2 1044.67 1073.33 1041.07 1074.8 1038.4C1078.93 1030.53 1109.87 977.733 1111.47 976C1112.93 974.266 1118.67 974 1150.93 974.4L1188.67 974.8L1207.2 1007.07ZM495.867 1008.13L515.067 1041.6L512.533 1046C511.2 1048.27 502.533 1063.2 493.333 1079.07L476.667 1107.87H438L399.333 1108L380.267 1074.67L361.2 1041.47L373.467 1020.4C380.133 1008.8 388.933 993.733 392.933 986.933L400.133 974.666H438.4H476.667L495.867 1008.13ZM732.667 1007.47C742.933 1025.47 751.333 1040.53 751.2 1040.93C751.2 1041.33 742.533 1056.53 731.867 1074.8L712.667 1108L675.2 1107.87C641.6 1107.87 637.467 1107.6 635.733 1105.6C633.733 1103.2 600.267 1045.07 599.733 1042.8C599.467 1042.13 608 1026.53 618.667 1008.13L638 974.666H676H714L732.667 1007.47ZM970 1007.73C980.267 1025.73 988.667 1041.2 988.667 1042.13C988.667 1042.93 980.267 1058.13 970 1075.87L951.333 1108L912.8 1107.73L874.267 1107.33L855.333 1074.13L836.267 1040.93L844.533 1026.8C849.067 1019.07 857.867 1004.13 863.867 993.6L874.933 974.666L913.067 974.8H951.333L970 1007.73ZM1446.13 1008.4L1464.93 1041.47L1445.6 1074.67L1426.27 1108H1387.87H1349.6L1330.8 1075.2C1320.4 1057.07 1312 1041.73 1312 1041.07C1312 1040.4 1320.53 1025.07 1330.93 1007.2L1349.87 974.666L1388.53 974.933L1427.2 975.333L1446.13 1008.4ZM816 1043.47L832.8 1044.4L851.733 1077.33L870.667 1110.4L851.2 1143.87L831.733 1177.33L808.933 1177.2C796.267 1177.07 778.8 1176.67 770.133 1176.13L754.133 1175.33L735.733 1143.33C725.733 1125.73 717.333 1110.93 717.333 1110.27C717.333 1109.73 726.133 1094.27 736.8 1076L756.267 1042.67H777.733C789.6 1042.67 806.8 1043.07 816 1043.47ZM1286 1044H1307.47L1326.53 1077.33L1345.6 1110.67L1326.27 1143.73L1307.07 1176.67L1268.93 1177.07L1230.67 1177.33L1227.6 1172.4C1219.2 1159.2 1192 1110.4 1192.4 1109.6C1192.67 1109.07 1201.6 1093.73 1212.13 1075.47L1231.33 1042.27L1248 1043.2C1257.2 1043.6 1274.27 1044 1286 1044Z" fill="#3827C7" fill-opacity="0.23"/>
</g>
<defs>
<clipPath id="clip0_76_3">
<rect width="1706.67" height="1181.33" fill="white"/>
</clipPath>
</defs>
</svg>
