<svg width="1920" height="907" viewBox="0 0 1920 907" fill="none" xmlns="http://www.w3.org/2000/svg">
<path d="M478.95 -776.8L441 -754.75L440.7 -712L440.25 -669.4L404.25 -648.7L368.25 -628L367.5 -585.1L366.75 -542.2L330.45 -521.2L294 -500.2V-457.75V-415.45L257.7 -394.45L221.25 -373.45L220.8 -330.7L220.5 -288.1L184.05 -267.1L147.75 -246.1L147.3 -203.5L146.85 -160.75L110.25 -139.75L73.65 -118.75L73.2 -76.0001L72.75 -33.2501L36.3 -12.2501L-3.05176e-05 8.74994V53.7499V98.7499L36.45 119.75L72.75 140.75L73.2 183.5L73.65 226.25L110.25 247.25L146.85 268.25L147.3 311L147.75 353.6L184.05 374.6L220.5 395.6L220.8 438.2L221.25 480.95L257.55 501.95L294 522.95V565.25V607.7L330.45 628.7L366.75 649.7L367.5 692.6L368.25 735.5L404.25 756.2L440.25 776.9L440.7 819.5L441 862.25L478.8 884C499.5 896 517.2 905.9 518.25 906.2C519.15 906.5 536.4 897.2 556.2 885.65L592.5 864.8L628.65 885.65C648.45 897.05 665.25 906.5 666 906.5C666.75 906.5 683.55 897.05 703.35 885.65L739.5 864.8L775.65 885.65C795.45 897.05 812.25 906.5 813 906.5C813.75 906.5 830.55 897.05 850.35 885.65L886.5 864.8L922.65 885.65C942.45 897.05 959.25 906.5 960 906.5C960.75 906.5 977.55 897.05 997.35 885.65L1033.5 864.8L1069.65 885.65C1089.45 897.05 1106.25 906.5 1107 906.5C1107.75 906.5 1124.55 897.05 1144.35 885.65L1180.5 864.8L1216.65 885.65C1236.45 897.05 1253.25 906.5 1254 906.5C1254.75 906.5 1271.55 897.05 1291.35 885.65L1327.5 864.8L1363.8 885.65C1383.6 897.2 1400.85 906.5 1401.75 906.2C1402.8 905.9 1420.5 896 1441.2 884L1479 862.25L1479.3 819.5L1479.75 776.9L1515.75 756.2L1551.75 735.5L1552.5 692.6L1553.25 649.7L1589.7 628.7L1626 607.7V565.25V522.95L1662.3 501.95L1698.75 480.95L1699.2 438.2L1699.5 395.6L1735.95 374.6L1772.25 353.6L1772.7 311L1773.15 268.25L1809.75 247.25L1846.35 226.25L1846.8 183.5L1847.25 140.75L1883.7 119.75L1920 98.7499V53.7499V8.74994L1883.7 -12.2501L1847.25 -33.2501L1846.8 -76.0001L1846.35 -118.75L1809.75 -139.75L1773.15 -160.75L1772.7 -203.5L1772.25 -246.1L1735.95 -267.1L1699.5 -288.1L1699.2 -330.7L1698.75 -373.45L1662.45 -394.45L1626 -415.45V-457.75V-500.2L1589.7 -521.2L1553.25 -542.2L1552.5 -585.1L1551.75 -628L1515.75 -648.7L1479.75 -669.4L1479.3 -712L1479 -754.75L1441.2 -776.5C1420.5 -788.5 1402.8 -798.4 1401.75 -798.7C1400.85 -799 1383.6 -789.7 1363.8 -778.15L1327.5 -757.3L1291.35 -778.15C1271.55 -789.55 1254.75 -799 1254 -799C1253.25 -799 1236.45 -789.55 1216.65 -778.15L1180.5 -757.3L1144.35 -778.15C1124.55 -789.55 1107.75 -799 1107 -799C1106.25 -799 1089.45 -789.55 1069.65 -778.15L1033.5 -757.3L997.35 -778.15C977.55 -789.55 960.75 -799 960 -799C959.25 -799 942.45 -789.55 922.65 -778.15L886.5 -757.3L850.35 -778.15C830.55 -789.55 813.75 -799 813 -799C812.25 -799 795.45 -789.55 775.65 -778.15L739.5 -757.3L703.35 -778.15C683.55 -789.55 666.75 -799 666 -799C665.25 -799 648.45 -789.55 628.65 -778.15L592.5 -757.3L556.35 -778.15C536.55 -789.55 519.45 -799 518.55 -798.85C517.5 -798.85 499.65 -788.8 478.95 -776.8ZM553.8 -769.15L587.25 -749.8V-709.75V-669.7L553.8 -650.35C535.35 -639.7 519.75 -631 519 -631C518.4 -631 502.65 -639.7 484.2 -650.35L450.75 -669.7V-709.75V-749.65L483.75 -769C501.9 -779.65 517.5 -788.35 518.55 -788.35C519.45 -788.5 535.35 -779.8 553.8 -769.15ZM700.8 -769.15L734.25 -749.8V-709.75V-669.7L700.8 -650.35C682.35 -639.7 666.75 -631 666 -631C665.4 -631 649.65 -639.7 631.2 -650.35L597.75 -669.7V-709.75V-749.65L630.75 -769C648.9 -779.65 664.5 -788.35 665.55 -788.35C666.45 -788.5 682.35 -779.8 700.8 -769.15ZM847.8 -769.15L881.25 -749.65V-709.75V-669.7L847.8 -650.35C829.35 -639.7 813.75 -631 813 -631C812.25 -631 796.65 -639.7 778.2 -650.35L744.75 -669.7V-709.75V-749.65L777.75 -769C795.9 -779.65 811.5 -788.35 812.55 -788.35C813.45 -788.5 829.35 -779.8 847.8 -769.15ZM994.8 -769.15L1028.25 -749.65V-709.75V-669.7L994.8 -650.35C976.35 -639.7 960.75 -631 960 -631C959.25 -631 943.65 -639.7 925.2 -650.35L891.75 -669.7V-709.75V-749.65L924.75 -769C942.9 -779.65 958.5 -788.35 959.55 -788.35C960.45 -788.5 976.35 -779.8 994.8 -769.15ZM1141.8 -769.15L1175.25 -749.65V-709.75V-669.7L1141.8 -650.35C1123.35 -639.7 1107.75 -631 1107 -631C1106.25 -631 1090.65 -639.7 1072.2 -650.35L1038.75 -669.7V-709.75V-749.65L1071.75 -769C1089.9 -779.65 1105.5 -788.35 1106.55 -788.35C1107.45 -788.5 1123.35 -779.8 1141.8 -769.15ZM1288.8 -769.15L1322.25 -749.65V-709.75V-669.7L1288.8 -650.35C1270.35 -639.7 1254.6 -631 1254 -631C1253.25 -631 1237.65 -639.7 1219.2 -650.35L1185.75 -669.7V-709.75V-749.8L1218.75 -769C1236.9 -779.65 1252.5 -788.35 1253.55 -788.35C1254.45 -788.5 1270.35 -779.8 1288.8 -769.15ZM1435.8 -769.15L1469.25 -749.65V-709.75V-669.7L1435.8 -650.35C1417.35 -639.7 1401.6 -631 1401 -631C1400.25 -631 1384.65 -639.7 1366.2 -650.35L1332.75 -669.7V-709.75V-749.8L1365.75 -769C1383.9 -779.65 1399.5 -788.35 1400.55 -788.35C1401.45 -788.5 1417.35 -779.8 1435.8 -769.15ZM480.45 -641.65L513.75 -622.3V-582.25V-542.35L479.7 -522.7L445.5 -503.05L411.45 -522.7L377.25 -542.35V-582.4V-622.6L410.25 -641.65C428.4 -652.3 444.15 -660.85 445.2 -660.85C446.1 -661 462 -652.3 480.45 -641.65ZM627.45 -641.65L660.75 -622.3V-582.25V-542.35L626.7 -522.7L592.5 -503.05L558.45 -522.7L524.25 -542.35V-582.4V-622.3L557.25 -641.5C575.4 -652.15 591.15 -660.85 592.2 -660.85C593.1 -661 609 -652.3 627.45 -641.65ZM774.3 -641.65L807.75 -622.3V-582.4V-542.35L773.7 -522.7L739.5 -503.05L705.45 -522.7L671.25 -542.35V-582.4V-622.3L704.25 -641.5C722.4 -652.15 738 -660.85 739.05 -660.85C739.95 -661 755.85 -652.3 774.3 -641.65ZM921.3 -641.65L954.75 -622.3V-582.4V-542.35L920.7 -522.7L886.5 -503.05L852.45 -522.7L818.25 -542.35V-582.4V-622.3L851.25 -641.5C869.4 -652.15 885 -660.85 886.05 -660.85C886.95 -661 902.85 -652.3 921.3 -641.65ZM1068.45 -641.65L1101.75 -622.3V-582.25V-542.35L1067.7 -522.7L1033.5 -503.05L999.45 -522.7L965.25 -542.35V-582.4V-622.3L998.25 -641.5C1016.4 -652.15 1032.15 -660.85 1033.2 -660.85C1034.1 -661 1050 -652.3 1068.45 -641.65ZM1215.3 -641.65L1248.75 -622.3V-582.4V-542.35L1214.7 -522.7L1180.5 -503.05L1146.45 -522.7L1112.25 -542.35V-582.4V-622.3L1145.25 -641.5C1163.4 -652.15 1179 -660.85 1180.05 -660.85C1180.95 -661 1196.85 -652.3 1215.3 -641.65ZM1362.3 -641.65L1395.75 -622.3V-582.4V-542.35L1361.7 -522.7L1327.5 -503.05L1293.45 -522.7L1259.25 -542.35V-582.25V-622.3L1292.25 -641.5C1310.4 -652.15 1326 -660.85 1327.05 -660.85C1327.95 -661 1343.85 -652.3 1362.3 -641.65ZM1509.75 -641.65L1542.75 -622.6V-582.4V-542.35L1508.7 -522.7L1474.5 -503.05L1440.45 -522.7L1406.25 -542.35V-582.25V-622.3L1439.25 -641.5C1457.4 -652.15 1473.3 -660.85 1474.5 -660.85C1475.7 -660.85 1491.6 -652.3 1509.75 -641.65ZM414.75 -509.95L440.25 -495.1L440.7 -455.35L441 -415.6L406.5 -395.65L372 -375.85L337.5 -395.65L303 -415.6V-455.5L303.15 -495.25L337.2 -514.9L371.25 -534.55L380.25 -529.6C385.2 -526.9 400.8 -518.05 414.75 -509.95ZM1617 -455.5V-415.6L1582.5 -395.65L1548 -375.85L1513.5 -395.65L1479 -415.6L1479.3 -455.35L1479.75 -495.1L1513.95 -514.9L1548.15 -534.7L1582.5 -514.9L1616.85 -495.25L1617 -455.5ZM554.25 -514.3L587.25 -495.1L587.7 -455.35L588 -415.6L553.5 -395.65L519 -375.85L484.5 -395.8L450 -415.75L450.3 -455.35L450.75 -495.1L483.75 -514.3C501.9 -524.8 517.8 -533.35 519 -533.5C520.2 -533.5 536.1 -524.8 554.25 -514.3ZM701.25 -514.3L734.25 -495.1L734.7 -455.35L735 -415.6L700.5 -395.65L666 -375.85L631.5 -395.8L597 -415.75L597.3 -455.35L597.75 -495.1L630.75 -514.3C648.9 -524.8 664.8 -533.35 666 -533.35C667.2 -533.35 683.1 -524.8 701.25 -514.3ZM848.25 -514.3L881.25 -495.1L881.7 -455.35L882 -415.6L847.5 -395.65L813 -375.85L778.5 -395.65L744 -415.6L744.3 -455.35L744.75 -495.1L777.75 -514.3C795.9 -524.8 811.8 -533.35 813 -533.35C814.2 -533.35 830.1 -524.8 848.25 -514.3ZM995.25 -514.3L1028.25 -495.1L1028.7 -455.35L1029 -415.6L994.5 -395.65L960 -375.85L925.5 -395.65L891 -415.6L891.3 -455.35L891.75 -495.1L924.75 -514.3C942.9 -524.8 958.8 -533.35 960 -533.35C961.2 -533.35 977.1 -524.8 995.25 -514.3ZM1142.25 -514.3L1175.25 -495.1L1175.7 -455.35L1176 -415.6L1141.5 -395.65L1107 -375.85L1072.5 -395.65L1038 -415.6L1038.3 -455.35L1038.75 -495.1L1071.75 -514.3C1089.9 -524.8 1105.8 -533.35 1107 -533.35C1108.2 -533.35 1124.1 -524.8 1142.25 -514.3ZM1289.25 -514.3L1322.25 -495.1L1322.7 -455.35L1323 -415.75L1288.5 -395.8L1254 -375.85L1219.5 -395.65L1185 -415.6L1185.3 -455.35L1185.75 -495.1L1218.75 -514.3C1236.9 -524.8 1252.8 -533.5 1254 -533.5C1255.2 -533.35 1271.1 -524.8 1289.25 -514.3ZM1436.25 -514.3L1469.25 -495.1L1469.7 -455.35L1470 -415.75L1435.5 -395.8L1401 -375.85L1366.5 -395.65L1332 -415.6L1332.3 -455.35L1332.75 -495.1L1365.75 -514.3C1383.9 -524.8 1399.8 -533.5 1401 -533.5C1402.2 -533.35 1418.1 -524.8 1436.25 -514.3ZM333.45 -387.25L367.5 -367.75V-328V-288.25L333 -268.45L298.65 -248.65L264 -268.45L229.5 -288.25V-328V-367.75L263.7 -387.55C282.45 -398.35 298.2 -407.2 298.65 -407.05C299.1 -406.9 314.85 -398.05 333.45 -387.25ZM480.45 -387.25L514.5 -367.75V-328V-288.25L480 -268.45L445.65 -248.65L411 -268.45L376.5 -288.25V-328L376.65 -367.75L410.7 -387.55C429.45 -398.35 445.2 -407.05 445.65 -407.05C446.1 -406.9 461.85 -398.05 480.45 -387.25ZM627.45 -387.25L661.5 -367.75V-328V-288.25L627 -268.45L592.65 -248.65L558 -268.45L523.5 -288.25V-328L523.65 -367.75L557.7 -387.55C576.45 -398.35 592.2 -407.05 592.65 -407.05C593.1 -406.9 608.85 -398.05 627.45 -387.25ZM774.45 -387.25L808.5 -367.75V-328V-288.25L774 -268.45L739.5 -248.5L705 -268.45L670.5 -288.25V-328L670.65 -367.75L704.7 -387.55C723.45 -398.35 739.2 -407.05 739.65 -407.05C740.1 -406.9 755.7 -398.05 774.45 -387.25ZM921.45 -387.25L955.5 -367.75V-328V-288.25L921 -268.45L886.5 -248.5L852 -268.45L817.5 -288.25V-328V-367.75L851.7 -387.4C870.45 -398.35 886.2 -407.05 886.65 -406.9C887.1 -406.9 902.7 -398.05 921.45 -387.25ZM1068.45 -387.25L1102.5 -367.75V-328V-288.25L1068 -268.45L1033.5 -248.5L999 -268.45L964.5 -288.25V-328V-367.75L998.7 -387.4C1017.45 -398.35 1033.2 -407.05 1033.65 -406.9C1034.1 -406.9 1049.7 -398.05 1068.45 -387.25ZM1215.45 -387.25L1249.35 -367.75L1249.5 -328V-288.25L1215 -268.45L1180.5 -248.5L1146 -268.45L1111.5 -288.25V-328V-367.75L1145.7 -387.4C1164.45 -398.35 1180.2 -407.05 1180.65 -406.9C1181.1 -406.9 1196.85 -398.05 1215.45 -387.25ZM1362.45 -387.25L1396.35 -367.75L1396.5 -328V-288.25L1362 -268.45L1327.35 -248.65L1293 -268.45L1258.5 -288.25V-328V-367.75L1292.7 -387.55C1311.45 -398.35 1327.2 -407.05 1327.65 -407.05C1328.1 -406.9 1343.85 -398.05 1362.45 -387.25ZM1509.45 -387.25L1543.35 -367.75L1543.5 -328V-288.25L1509 -268.45L1474.35 -248.65L1440 -268.45L1405.5 -288.25V-328V-367.75L1439.7 -387.55C1458.45 -398.35 1474.2 -407.05 1474.65 -407.05C1475.1 -406.9 1490.85 -398.05 1509.45 -387.25ZM1656.6 -387.25L1690.5 -367.75V-328V-288.25L1656 -268.45L1621.35 -248.65L1587 -268.45L1552.5 -288.25V-328V-367.75L1586.7 -387.55C1605.45 -398.35 1621.2 -407.05 1621.8 -407.05C1622.4 -406.9 1638.15 -398.05 1656.6 -387.25ZM259.65 -260.2L294 -240.4V-200.5L293.85 -160.75L259.5 -140.95L225 -121.3L190.8 -141.1L156.75 -160.75L156.3 -200.65L156 -240.4L190.05 -260.2C208.95 -271 224.4 -280 224.7 -280C225 -280 240.6 -271 259.65 -260.2ZM406.5 -260.2L441 -240.25V-200.5L440.85 -160.75L406.35 -140.95L372 -121.3L337.8 -141.1L303.75 -160.75L303.3 -200.5L303 -240.25L337.05 -260.05C355.95 -271 371.4 -279.85 371.7 -279.85C371.85 -280 387.6 -271 406.5 -260.2ZM553.5 -260.2L588 -240.25V-200.5L587.85 -160.75L553.35 -140.95L519 -121.3L484.8 -141.1L450.75 -160.75L450.3 -200.5L450 -240.25L484.05 -260.05C502.95 -271 518.4 -279.85 518.7 -279.85C518.85 -280 534.6 -271 553.5 -260.2ZM700.5 -260.2L735 -240.25V-200.5L734.85 -160.75L700.35 -140.95L666 -121.3L631.8 -141.1L597.75 -160.75L597.3 -200.5L597 -240.25L631.05 -260.05C649.95 -271 665.4 -279.85 665.7 -279.85C665.85 -280 681.6 -271 700.5 -260.2ZM847.5 -260.2L882 -240.25L881.7 -200.5L881.25 -160.75L847.2 -141.1L813 -121.3L778.95 -141.1L744.75 -160.75L744.3 -200.5L744 -240.25L778.05 -260.05C796.95 -271 812.4 -279.85 812.7 -279.85C812.85 -280 828.6 -271 847.5 -260.2ZM994.5 -260.2L1029 -240.25L1028.7 -200.5L1028.25 -160.75L994.2 -141.1L960 -121.3L925.95 -141.1L891.75 -160.75L891.3 -200.5L891 -240.25L925.05 -260.05C943.95 -271 959.4 -279.85 959.7 -279.85C959.85 -280 975.6 -271 994.5 -260.2ZM1141.5 -260.2L1176 -240.25L1175.7 -200.5L1175.25 -160.75L1141.2 -141.1L1107 -121.3L1072.95 -141.1L1038.75 -160.75L1038.3 -200.5L1038 -240.25L1072.05 -260.05C1090.95 -271 1106.4 -279.85 1106.7 -279.85C1106.85 -280 1122.6 -271 1141.5 -260.2ZM1288.5 -260.2L1323 -240.25L1322.7 -200.5L1322.25 -160.75L1288.2 -141.1L1254 -121.3L1219.65 -140.95L1185.15 -160.75L1185 -200.5V-240.25L1219.2 -260.05C1237.95 -271 1253.4 -279.85 1253.7 -279.85C1253.85 -280 1269.6 -271 1288.5 -260.2ZM1435.5 -260.2L1470 -240.25L1469.7 -200.5L1469.25 -160.75L1435.2 -141.1L1401 -121.3L1366.65 -140.95L1332.15 -160.75L1332 -200.5V-240.25L1366.2 -260.05C1384.95 -271 1400.4 -279.85 1400.7 -279.85C1400.85 -280 1416.6 -271 1435.5 -260.2ZM1582.5 -260.2L1617 -240.25L1616.7 -200.5L1616.25 -160.75L1582.2 -141.1L1548 -121.3L1513.65 -140.95L1479.15 -160.75L1479 -200.5V-240.25L1513.2 -260.05C1531.95 -271 1547.4 -279.85 1547.7 -279.85C1547.85 -280 1563.6 -271 1582.5 -260.2ZM1729.8 -260.2L1764 -240.4L1763.7 -200.65L1763.25 -160.75L1729.2 -141.1L1695 -121.3L1660.5 -140.95L1626.15 -160.75L1626 -200.5V-240.4L1660.2 -260.05C1678.95 -271 1694.55 -279.85 1694.85 -280C1695.15 -280 1710.9 -271.15 1729.8 -260.2ZM187.8 -131.95L220.5 -113.05L220.2 -73.3L219.75 -33.4L186.75 -14.35C168.6 -3.70001 152.7 4.84998 151.5 4.84998C150.3 4.84998 134.4 -3.85004 116.25 -14.35L83.25 -33.55L82.8 -73.45L82.5 -113.2L116.55 -132.85C135.45 -143.65 151.65 -152.2 152.85 -151.75C154.05 -151.3 169.65 -142.45 187.8 -131.95ZM333.3 -132.85L367.5 -113.05L367.2 -73.3L366.75 -33.4L333.75 -14.35C315.6 -3.70001 299.7 4.84998 298.5 4.84998C297.3 4.84998 281.4 -3.85004 263.25 -14.35L230.25 -33.55L229.8 -73.3L229.5 -113.05L263.55 -132.7C282.45 -143.65 298.05 -152.5 298.35 -152.5C298.65 -152.5 314.4 -143.65 333.3 -132.85ZM480.3 -132.85L514.5 -113.05L514.2 -73.3L513.75 -33.4L480.75 -14.35C462.6 -3.70001 446.7 4.84998 445.5 4.84998C444.3 4.84998 428.4 -3.85004 410.25 -14.35L377.25 -33.55L376.8 -73.3L376.5 -113.05L410.55 -132.7C429.45 -143.65 445.05 -152.5 445.35 -152.5C445.65 -152.5 461.4 -143.65 480.3 -132.85ZM627.3 -132.85L661.5 -113.05L661.2 -73.3L660.75 -33.4L627.75 -14.35C609.6 -3.70001 593.7 4.84998 592.5 4.84998C591.3 4.84998 575.4 -3.85004 557.25 -14.35L524.25 -33.55L523.8 -73.3L523.5 -113.05L557.55 -132.7C576.45 -143.65 592.05 -152.5 592.35 -152.5C592.65 -152.5 608.4 -143.65 627.3 -132.85ZM774.3 -132.85L808.5 -113.05L808.2 -73.3L807.75 -33.55L774.75 -14.35C756.6 -3.85004 740.7 4.84998 739.5 4.84998C738.3 4.84998 722.4 -3.85004 704.25 -14.35L671.25 -33.55L670.8 -73.3L670.5 -113.05L704.55 -132.7C723.45 -143.65 739.05 -152.5 739.35 -152.5C739.65 -152.5 755.4 -143.65 774.3 -132.85ZM921.3 -132.85L955.5 -113.05L955.2 -73.3L954.75 -33.55L921.75 -14.35C903.6 -3.85004 887.7 4.84998 886.5 4.84998C885.3 4.84998 869.4 -3.85004 851.25 -14.35L818.25 -33.55L817.8 -73.3L817.5 -113.05L851.55 -132.7C870.45 -143.65 886.05 -152.5 886.35 -152.5C886.65 -152.5 902.4 -143.65 921.3 -132.85ZM1068.3 -132.85L1102.5 -113.05L1102.2 -73.3L1101.75 -33.55L1068.75 -14.35C1050.6 -3.85004 1034.7 4.84998 1033.5 4.84998C1032.3 4.84998 1016.4 -3.85004 998.25 -14.35L965.25 -33.55L964.8 -73.3L964.5 -113.05L998.55 -132.7C1017.45 -143.65 1033.05 -152.5 1033.35 -152.5C1033.65 -152.5 1049.4 -143.65 1068.3 -132.85ZM1215.3 -132.85L1249.5 -113.05L1249.2 -73.3L1248.75 -33.55L1215.75 -14.35C1197.6 -3.85004 1181.7 4.84998 1180.5 4.84998C1179.3 4.84998 1163.4 -3.85004 1145.25 -14.35L1112.25 -33.55L1111.8 -73.3L1111.5 -113.05L1145.55 -132.7C1164.45 -143.65 1180.05 -152.5 1180.35 -152.5C1180.65 -152.5 1196.4 -143.65 1215.3 -132.85ZM1362.3 -132.85L1396.5 -113.05L1396.2 -73.3L1395.75 -33.55L1362.75 -14.35C1344.6 -3.85004 1328.7 4.84998 1327.5 4.84998C1326.3 4.84998 1310.4 -3.70001 1292.25 -14.35L1259.25 -33.4L1258.8 -73.3L1258.5 -113.05L1292.55 -132.7C1311.45 -143.65 1327.05 -152.5 1327.35 -152.5C1327.65 -152.5 1343.4 -143.65 1362.3 -132.85ZM1509.3 -132.85L1543.5 -113.05L1543.2 -73.3L1542.75 -33.55L1509.75 -14.35C1491.6 -3.85004 1475.7 4.84998 1474.5 4.84998C1473.3 4.84998 1457.4 -3.70001 1439.25 -14.35L1406.25 -33.4L1405.8 -73.3L1405.5 -113.05L1439.55 -132.7C1458.45 -143.65 1474.05 -152.5 1474.35 -152.5C1474.65 -152.5 1490.4 -143.65 1509.3 -132.85ZM1656.3 -132.85L1690.5 -113.05L1690.2 -73.3L1689.75 -33.55L1656.75 -14.35C1638.6 -3.85004 1622.7 4.84998 1621.5 4.84998C1620.3 4.84998 1604.4 -3.70001 1586.25 -14.35L1553.25 -33.4L1552.8 -73.3L1552.5 -113.05L1586.55 -132.7C1605.45 -143.65 1621.05 -152.5 1621.35 -152.5C1621.65 -152.5 1637.4 -143.65 1656.3 -132.85ZM1804.8 -131.95L1837.5 -113.2L1837.2 -73.45L1836.75 -33.55L1803.75 -14.35C1785.6 -3.85004 1769.7 4.84998 1768.5 4.84998C1767.3 4.84998 1751.4 -3.70001 1733.25 -14.35L1700.25 -33.4L1699.8 -73.3L1699.5 -113.05L1733.55 -132.85C1752.9 -143.95 1768.65 -152.2 1770 -151.6C1771.2 -151.15 1786.95 -142.3 1804.8 -131.95ZM112.8 -5.65002L146.25 13.85V53.7499V93.65L112.5 113.15C94.05 123.95 77.85 132.35 76.5 132.05C75.3 131.6 59.7 122.9 42 112.55L9.74997 93.8V53.7499V13.7L42.75 -5.50006C60.9 -16.15 76.5 -24.85 77.55 -24.85C78.45 -25.0001 94.35 -16.3 112.8 -5.65002ZM259.8 -5.65002L293.25 13.85V53.7499V93.65L259.8 113.15C241.35 123.8 225.75 132.5 225.15 132.5C224.4 132.5 208.65 123.65 190.05 112.85L156 93.2V53.7499V14.3L189.45 -5.20001C207.75 -16.0001 223.5 -24.7 224.55 -24.85C225.45 -25.0001 241.35 -16.3 259.8 -5.65002ZM406.8 -5.65002L440.25 13.85V53.7499V93.65L406.8 113.15C388.35 123.8 372.75 132.5 372.15 132.5C371.4 132.5 355.65 123.65 337.05 112.85L303 93.2V53.7499V14.3L336.45 -5.20001C354.75 -16.0001 370.5 -24.7 371.55 -24.85C372.45 -25.0001 388.35 -16.3 406.8 -5.65002ZM553.8 -5.65002L587.25 13.85V53.7499V93.65L553.8 113.15C535.35 123.8 519.75 132.5 519.15 132.5C518.4 132.5 502.65 123.65 484.05 112.85L450 93.2V53.7499V14.3L483.45 -5.20001C501.75 -16.0001 517.5 -24.7 518.55 -24.85C519.45 -25.0001 535.35 -16.3 553.8 -5.65002ZM700.8 -5.65002L734.25 13.85V53.7499V93.65L700.8 113.15C682.35 123.8 666.75 132.5 666.15 132.5C665.4 132.5 649.65 123.65 631.05 112.85L597 93.2V53.7499V14.3L630.45 -5.20001C648.75 -16.0001 664.5 -24.7 665.55 -24.85C666.45 -25.0001 682.35 -16.3 700.8 -5.65002ZM847.8 -5.65002L881.25 13.85V53.7499V93.65L847.8 113.15C829.35 123.8 813.6 132.5 813 132.5C812.4 132.5 796.65 123.8 778.2 113.15L744.75 93.65V53.7499V13.85L777.75 -5.50006C795.9 -16.0001 811.5 -24.85 812.55 -24.85C813.45 -25.0001 829.35 -16.3 847.8 -5.65002ZM994.8 -5.65002L1028.25 13.85V53.7499V93.65L994.8 113.15C976.35 123.8 960.6 132.5 960 132.5C959.4 132.5 943.65 123.8 925.2 113.15L891.75 93.65V53.7499V13.85L924.75 -5.50006C942.9 -16.0001 958.5 -24.85 959.55 -24.85C960.45 -25.0001 976.35 -16.3 994.8 -5.65002ZM1141.8 -5.65002L1175.25 13.85V53.7499V93.65L1141.8 113.15C1123.35 123.8 1107.6 132.5 1107 132.5C1106.4 132.5 1090.65 123.8 1072.2 113.15L1038.75 93.65V53.7499V13.85L1071.75 -5.50006C1089.9 -16.0001 1105.5 -24.85 1106.55 -24.85C1107.45 -25.0001 1123.35 -16.3 1141.8 -5.65002ZM1288.95 -5.35004L1323 14.3V53.7499V93.2L1288.95 112.85C1270.35 123.65 1254.6 132.5 1253.85 132.5C1253.25 132.5 1237.65 123.8 1219.2 113.15L1185.75 93.65V53.7499V13.85L1218.75 -5.50006C1236.9 -16.0001 1252.5 -24.85 1253.4 -24.85C1254.3 -25.0001 1270.35 -16.15 1288.95 -5.35004ZM1435.95 -5.35004L1470 14.3V53.7499V93.2L1435.95 112.85C1417.35 123.65 1401.6 132.5 1400.85 132.5C1400.25 132.5 1384.65 123.8 1366.2 113.15L1332.75 93.65V53.7499V13.85L1365.75 -5.50006C1383.9 -16.0001 1399.5 -24.85 1400.4 -24.85C1401.3 -25.0001 1417.35 -16.15 1435.95 -5.35004ZM1582.95 -5.35004L1617 14.3V53.7499V93.2L1582.95 112.85C1564.35 123.65 1548.6 132.5 1547.85 132.5C1547.25 132.5 1531.65 123.8 1513.2 113.15L1479.75 93.65V53.7499V13.85L1512.75 -5.50006C1530.9 -16.0001 1546.5 -24.85 1547.4 -24.85C1548.3 -25.0001 1564.35 -16.15 1582.95 -5.35004ZM1729.95 -5.35004L1764 14.3V53.7499V93.2L1729.95 112.85C1711.35 123.65 1695.6 132.5 1694.85 132.5C1694.25 132.5 1678.65 123.8 1660.2 113.15L1626.75 93.65V53.7499V13.85L1659.75 -5.50006C1677.9 -16.0001 1693.5 -24.85 1694.4 -24.85C1695.3 -25.0001 1711.35 -16.15 1729.95 -5.35004ZM1876.95 -5.65002L1910.25 13.7V53.7499V93.8L1878 112.55C1860.3 122.9 1844.7 131.6 1843.5 132.05C1842.15 132.35 1825.95 123.95 1807.5 113.15L1773.75 93.65V53.7499V13.85L1806.75 -5.50006C1824.9 -16.0001 1840.65 -24.85 1841.7 -24.85C1842.6 -25.0001 1858.5 -16.3 1876.95 -5.65002ZM186.75 121.85L219.75 140.9L220.2 180.8L220.5 220.55L187.2 239.9C168.75 250.4 152.7 259.1 151.5 259.1C150.3 259.1 134.25 250.55 115.8 239.9L82.5 220.7L82.8 180.95L83.25 141.05L116.25 121.85C134.4 111.35 150.3 102.65 151.5 102.65C152.7 102.65 168.6 111.2 186.75 121.85ZM333.75 121.85L366.75 140.9L367.2 180.8L367.5 220.55L333 240.35L298.5 260.3L264 240.35L229.5 220.55L229.8 180.8L230.25 141.05L263.25 121.85C281.4 111.35 297.3 102.65 298.5 102.65C299.7 102.65 315.6 111.2 333.75 121.85ZM480.75 121.85L513.75 140.9L514.2 180.8L514.5 220.55L480 240.35L445.5 260.3L411 240.35L376.5 220.55L376.8 180.8L377.25 141.05L410.25 121.85C428.4 111.35 444.3 102.65 445.5 102.65C446.7 102.65 462.6 111.2 480.75 121.85ZM627.75 121.85L660.75 140.9L661.2 180.8L661.5 220.55L627 240.35L592.5 260.3L558 240.35L523.5 220.55L523.8 180.8L524.25 141.05L557.25 121.85C575.4 111.35 591.3 102.65 592.5 102.65C593.7 102.65 609.6 111.2 627.75 121.85ZM774.75 121.85L807.75 141.05L808.2 180.8L808.5 220.55L774 240.35L739.5 260.3L705 240.35L670.5 220.55L670.8 180.8L671.25 141.05L704.25 121.85C722.4 111.35 738.3 102.65 739.5 102.65C740.7 102.65 756.6 111.35 774.75 121.85ZM921.75 121.85L954.75 141.05L955.2 180.8L955.5 220.55L921 240.35L886.5 260.3L852 240.35L817.5 220.55L817.8 180.8L818.25 141.05L851.25 121.85C869.4 111.35 885.3 102.65 886.5 102.65C887.7 102.65 903.6 111.35 921.75 121.85ZM1068.75 121.85L1101.75 141.05L1102.2 180.8L1102.5 220.55L1068 240.35L1033.5 260.3L999 240.35L964.5 220.55L964.8 180.8L965.25 141.05L998.25 121.85C1016.4 111.35 1032.3 102.65 1033.5 102.65C1034.7 102.65 1050.6 111.35 1068.75 121.85ZM1215.75 121.85L1248.75 141.05L1249.2 180.8L1249.5 220.55L1215 240.35L1180.5 260.3L1146 240.35L1111.5 220.55L1111.8 180.8L1112.25 141.05L1145.25 121.85C1163.4 111.35 1179.3 102.65 1180.5 102.65C1181.7 102.65 1197.6 111.35 1215.75 121.85ZM1362.75 121.85L1395.75 141.05L1396.2 180.8L1396.5 220.55L1362 240.35L1327.5 260.3L1293 240.35L1258.5 220.55L1258.8 180.8L1259.25 140.9L1292.25 121.85C1310.4 111.2 1326.3 102.65 1327.5 102.65C1328.7 102.65 1344.6 111.35 1362.75 121.85ZM1509.75 121.85L1542.75 141.05L1543.2 180.8L1543.5 220.55L1509 240.35L1474.5 260.3L1440 240.35L1405.5 220.55L1405.8 180.8L1406.25 140.9L1439.25 121.85C1457.4 111.2 1473.3 102.65 1474.5 102.65C1475.7 102.65 1491.6 111.35 1509.75 121.85ZM1656.75 121.85L1689.75 141.05L1690.2 180.8L1690.5 220.55L1656 240.35L1621.5 260.3L1587 240.35L1552.5 220.55L1552.8 180.8L1553.25 140.9L1586.25 121.85C1604.4 111.2 1620.3 102.65 1621.5 102.65C1622.7 102.65 1638.6 111.35 1656.75 121.85ZM1803.75 121.85L1836.75 141.05L1837.2 180.95L1837.5 220.7L1804.2 239.9C1785.75 250.55 1769.7 259.1 1768.5 259.1C1767.3 259.1 1751.25 250.4 1732.8 239.9L1699.5 220.55L1699.8 180.8L1700.25 140.9L1733.25 121.85C1751.4 111.2 1767.3 102.65 1768.5 102.65C1769.7 102.65 1785.6 111.35 1803.75 121.85ZM259.95 248.75L293.85 268.25L294 308V347.9L259.5 367.7L224.85 387.65L190.35 367.85L156 347.9L156.3 308.15L156.75 268.25L190.5 248.6C209.1 237.65 224.55 228.95 225 229.1C225.6 229.1 241.2 237.95 259.95 248.75ZM406.95 248.75L440.85 268.25L441 308V347.75L406.5 367.7L372 387.5L337.5 367.7L303 347.75L303.3 308L303.75 268.25L337.5 248.6C356.1 237.65 371.55 228.95 372 229.1C372.45 229.1 388.2 237.95 406.95 248.75ZM553.95 248.75L587.85 268.25L588 308V347.75L553.5 367.7L519 387.5L484.5 367.7L450 347.75L450.3 308L450.75 268.25L484.5 248.6C503.1 237.65 518.55 228.95 519 229.1C519.45 229.1 535.2 237.95 553.95 248.75ZM700.95 248.75L734.85 268.25L735 308V347.75L700.5 367.7L666 387.5L631.5 367.7L597 347.75L597.3 308L597.75 268.25L631.5 248.6C650.1 237.65 665.55 228.95 666 229.1C666.45 229.1 682.2 237.95 700.95 248.75ZM846.9 248.45L881.25 268.25L881.7 308L882 347.75L847.5 367.7L813 387.5L778.5 367.7L744 347.75L744.3 308L744.75 268.25L778.5 248.6C797.1 237.65 812.25 228.8 812.4 228.65C812.55 228.5 828 237.5 846.9 248.45ZM993.9 248.45L1028.25 268.25L1028.7 308L1029 347.75L994.5 367.7L960 387.5L925.5 367.7L891 347.75L891.3 308L891.75 268.25L925.5 248.6C944.1 237.65 959.25 228.8 959.4 228.65C959.55 228.5 975 237.5 993.9 248.45ZM1140.9 248.45L1175.25 268.25L1175.7 308L1176 347.75L1141.5 367.7L1107 387.5L1072.5 367.7L1038 347.75L1038.3 308L1038.75 268.25L1072.5 248.6C1091.1 237.65 1106.25 228.8 1106.4 228.65C1106.55 228.5 1122 237.5 1140.9 248.45ZM1287.9 248.45L1322.25 268.25L1322.7 308L1323 347.75L1288.5 367.7L1254 387.5L1219.5 367.7L1185 347.75V308L1185.15 268.25L1219.2 248.6C1237.95 237.65 1253.25 228.8 1253.4 228.65C1253.55 228.5 1269 237.5 1287.9 248.45ZM1434.9 248.45L1469.25 268.25L1469.7 308L1470 347.75L1435.5 367.7L1401 387.5L1366.5 367.7L1332 347.75V308L1332.15 268.25L1366.2 248.6C1384.95 237.65 1400.25 228.8 1400.4 228.65C1400.55 228.5 1416 237.5 1434.9 248.45ZM1581.9 248.45L1616.25 268.25L1616.7 308L1617 347.75L1582.5 367.7L1548 387.5L1513.5 367.7L1479 347.75V308L1479.15 268.25L1513.2 248.6C1531.95 237.65 1547.25 228.8 1547.4 228.65C1547.55 228.5 1563 237.5 1581.9 248.45ZM1728.9 248.45L1763.25 268.25L1763.7 308.15L1764 347.9L1729.65 367.85L1695.15 387.65L1660.5 367.7L1626 347.9V308L1626.15 268.25L1660.2 248.6C1678.95 237.65 1694.25 228.8 1694.4 228.65C1694.55 228.5 1710 237.5 1728.9 248.45ZM333.6 376.25L367.5 395.75V435.5V475.25L332.85 495.05L298.35 515L263.85 495.05L229.5 475.25V435.5V395.75L263.7 375.95C282.45 365.15 298.2 356.3 298.8 356.45C299.25 356.6 315 365.45 333.6 376.25ZM480.6 376.25L514.5 395.75V435.5V475.25L480 495.05L445.5 514.85L411 495.05L376.65 475.25L376.5 435.5V395.75L410.7 375.95C429.45 365.15 445.2 356.3 445.8 356.45C446.25 356.6 462 365.45 480.6 376.25ZM627.6 376.25L661.5 395.75V435.5V475.25L627 495.05L592.5 514.85L558 495.05L523.65 475.25L523.5 435.5V395.75L557.7 375.95C576.45 365.15 592.2 356.3 592.8 356.45C593.25 356.6 609 365.45 627.6 376.25ZM774.6 376.25L808.5 395.75V435.5V475.25L774 495.05L739.5 514.7L705 495.05L670.65 475.25L670.5 435.5V395.75L704.7 375.95C723.45 365.15 739.2 356.3 739.8 356.45C740.25 356.6 756 365.45 774.6 376.25ZM921.6 376.25L955.5 395.75V435.5V475.25L921 495.05L886.5 514.7L852 495.05L817.5 475.25V435.5V395.75L851.7 375.95C870.45 365.15 886.2 356.3 886.8 356.45C887.25 356.6 903 365.45 921.6 376.25ZM1068.6 376.25L1102.5 395.75V435.5V475.25L1068 495.05L1033.5 514.7L999 495.05L964.5 475.25V435.5V395.75L998.7 375.95C1017.45 365.15 1033.2 356.3 1033.8 356.45C1034.25 356.6 1050 365.45 1068.6 376.25ZM1215.6 376.25L1249.5 395.75V435.5L1249.35 475.25L1215 495.05L1180.5 514.7L1146 495.05L1111.5 475.25V435.5V395.75L1145.7 375.95C1164.45 365.15 1180.2 356.3 1180.8 356.45C1181.25 356.6 1197 365.45 1215.6 376.25ZM1362.6 376.25L1396.5 395.75V435.5L1396.35 475.25L1362 495.05L1327.5 514.85L1293 495.05L1258.5 475.25V435.5V395.75L1292.7 375.95C1311.45 365.15 1327.2 356.3 1327.65 356.45C1328.25 356.6 1343.85 365.45 1362.6 376.25ZM1509.6 376.25L1543.5 395.75V435.5L1543.35 475.25L1509 495.05L1474.5 514.85L1440 495.05L1405.5 475.25V435.5V395.75L1439.7 375.95C1458.45 365.15 1474.2 356.3 1474.65 356.45C1475.25 356.6 1490.85 365.45 1509.6 376.25ZM1656.6 376.25L1690.5 395.75V435.5V475.25L1656.15 495.05L1621.65 515L1587.15 495.05L1552.5 475.25V435.5V395.75L1586.7 375.95C1605.45 365.15 1621.2 356.3 1621.65 356.45C1622.25 356.6 1637.85 365.45 1656.6 376.25ZM406.8 503.3L441 523.1L440.7 562.85L440.25 602.6L406.05 622.4L371.85 642.2L337.5 622.4L303.15 602.75L303 563V523.1L337.2 503.45C355.95 492.5 371.55 483.5 371.85 483.5C372.15 483.5 387.9 492.35 406.8 503.3ZM553.8 503.3L588 523.1L587.7 562.85L587.25 602.6L554.25 621.8C536.1 632.3 520.2 641 519 641C517.8 640.85 501.9 632.3 483.75 621.8L450.75 602.6L450.3 562.85L450 523.25L484.05 503.45C502.95 492.5 518.55 483.5 518.85 483.5C519.15 483.5 534.9 492.35 553.8 503.3ZM700.8 503.3L735 523.1L734.7 562.85L734.25 602.6L701.25 621.8C683.1 632.3 667.2 641 666 641C664.8 640.85 648.9 632.3 630.75 621.8L597.75 602.6L597.3 562.85L597 523.25L631.05 503.45C649.95 492.5 665.55 483.5 665.85 483.5C666.15 483.5 681.9 492.35 700.8 503.3ZM847.65 503.3L882 523.1L881.7 562.85L881.25 602.6L848.25 621.8C830.1 632.3 814.2 640.85 813 640.85C811.8 640.85 795.9 632.3 777.75 621.8L744.75 602.6L744.3 562.85L744 523.1L778.05 503.3C796.95 492.5 812.55 483.65 812.7 483.5C813 483.5 828.75 492.35 847.65 503.3ZM994.65 503.3L1029 523.1L1028.7 562.85L1028.25 602.6L995.25 621.8C977.1 632.3 961.2 640.85 960 640.85C958.8 640.85 942.9 632.3 924.75 621.8L891.75 602.6L891.3 562.85L891 523.1L925.05 503.3C943.95 492.5 959.55 483.65 959.7 483.5C960 483.5 975.75 492.35 994.65 503.3ZM1141.65 503.3L1176 523.1L1175.7 562.85L1175.25 602.6L1142.25 621.8C1124.1 632.3 1108.2 640.85 1107 640.85C1105.8 640.85 1089.9 632.3 1071.75 621.8L1038.75 602.6L1038.3 562.85L1038 523.1L1072.05 503.3C1090.95 492.5 1106.55 483.65 1106.7 483.5C1107 483.5 1122.75 492.35 1141.65 503.3ZM1288.65 503.3L1323 523.25L1322.7 562.85L1322.25 602.6L1289.25 621.8C1271.1 632.3 1255.2 640.85 1254 640.85C1252.8 640.85 1236.9 632.3 1218.75 621.8L1185.75 602.6L1185.3 562.85L1185 523.1L1219.05 503.3C1237.95 492.5 1253.55 483.5 1253.85 483.5C1254.15 483.5 1269.75 492.5 1288.65 503.3ZM1435.65 503.3L1470 523.25L1469.7 562.85L1469.25 602.6L1436.25 621.8C1418.1 632.3 1402.2 640.85 1401 641C1399.8 641 1383.9 632.3 1365.75 621.8L1332.75 602.6L1332.3 562.85L1332 523.1L1366.05 503.3C1384.95 492.5 1400.55 483.5 1400.85 483.5C1401.15 483.5 1416.75 492.5 1435.65 503.3ZM1582.65 503.3L1617 523.1V563L1616.85 602.75L1582.5 622.4L1548.15 642.2L1513.95 622.4L1479.75 602.6L1479.3 562.85L1479 523.1L1513.05 503.3C1531.95 492.5 1547.55 483.5 1547.85 483.5C1548.15 483.5 1563.75 492.35 1582.65 503.3ZM481.8 631.55L514.5 650.3L514.2 690.05L513.75 729.8L480.45 749.15C462 759.8 446.1 768.5 445.2 768.35C444.15 768.35 428.4 759.8 410.25 749.15L377.25 730.1L376.8 690.2L376.5 650.3L410.55 630.65C430.05 619.4 445.65 611.3 447 611.9C448.2 612.35 463.95 621.2 481.8 631.55ZM628.8 631.55L661.5 650.3L661.2 690.05L660.75 729.8L628.5 748.55C610.8 758.9 595.2 767.6 593.85 768.05C592.65 768.35 576.45 759.95 557.85 749.3L524.25 729.8L523.8 690.05L523.5 650.3L557.55 630.65C577.05 619.4 592.65 611.3 594 611.9C595.2 612.35 610.95 621.2 628.8 631.55ZM775.8 631.55L808.5 650.3L808.2 690.05L807.75 729.8L774.3 749.15C755.85 759.8 740.25 768.5 739.5 768.5C738.75 768.5 723.15 759.8 704.7 749.15L671.25 729.8L670.8 690.05L670.5 650.3L704.55 630.65C724.05 619.4 739.65 611.3 741 611.9C742.2 612.35 757.95 621.2 775.8 631.55ZM922.8 631.55L955.5 650.3L955.2 690.05L954.75 729.8L921.3 749.15C902.85 759.8 887.25 768.5 886.5 768.5C885.75 768.5 870.15 759.8 851.7 749.15L818.25 729.8L817.8 690.05L817.5 650.3L851.55 630.65C871.05 619.4 886.65 611.3 888 611.9C889.2 612.35 904.95 621.2 922.8 631.55ZM1069.8 631.55L1102.5 650.3L1102.2 690.05L1101.75 729.8L1069.5 748.55C1051.8 758.9 1036.2 767.6 1034.85 768.05C1033.65 768.35 1017.45 759.95 998.85 749.3L965.25 729.8L964.8 690.05L964.5 650.3L998.55 630.65C1018.05 619.4 1033.65 611.3 1035 611.9C1036.2 612.35 1051.95 621.2 1069.8 631.55ZM1216.8 631.55L1249.5 650.3L1249.2 690.05L1248.75 729.8L1215.3 749.15C1196.85 759.8 1181.25 768.5 1180.5 768.5C1179.75 768.5 1164.15 759.8 1145.7 749.15L1112.25 729.8L1111.8 690.05L1111.5 650.3L1145.55 630.65C1165.05 619.4 1180.65 611.3 1182 611.9C1183.2 612.35 1198.95 621.2 1216.8 631.55ZM1363.8 631.55L1396.5 650.3L1396.2 690.05L1395.75 729.8L1362.15 749.3C1343.55 759.95 1327.35 768.35 1326.15 768.05C1324.8 767.6 1309.2 758.9 1291.5 748.55L1259.25 729.8L1258.8 690.05L1258.5 650.3L1292.55 630.65C1312.05 619.4 1327.65 611.3 1329 611.9C1330.2 612.35 1345.95 621.2 1363.8 631.55ZM1510.8 631.55L1543.5 650.3L1543.2 690.2L1542.75 730.1L1509.75 749.15C1491.6 759.8 1475.85 768.35 1474.8 768.35C1473.9 768.5 1458 759.8 1439.55 749.15L1406.25 729.8L1405.8 690.05L1405.5 650.3L1439.55 630.65C1459.05 619.4 1474.65 611.3 1476 611.9C1477.2 612.35 1492.95 621.2 1510.8 631.55ZM553.8 757.85L587.25 777.2V817.25V857.3L553.8 876.65C535.35 887.3 519.6 896 519 896C518.25 896 502.65 887.3 484.2 876.65L450.75 857.15V817.25V777.2L483.75 758C501.9 747.35 517.5 738.65 518.55 738.65C519.45 738.5 535.35 747.2 553.8 757.85ZM700.8 757.85L734.25 777.2V817.25V857.3L700.8 876.65C682.35 887.3 666.6 896 666 896C665.25 896 649.65 887.3 631.2 876.65L597.75 857.15V817.25V777.2L630.75 758C648.9 747.35 664.5 738.65 665.55 738.65C666.45 738.5 682.35 747.2 700.8 757.85ZM847.8 757.85L881.25 777.2V817.25V857.15L847.8 876.65C829.35 887.3 813.75 896 813 896C812.25 896 796.65 887.3 778.2 876.65L744.75 857.15V817.25V777.2L777.75 758C795.9 747.35 811.5 738.65 812.55 738.65C813.45 738.5 829.35 747.2 847.8 757.85ZM994.8 757.85L1028.25 777.2V817.25V857.15L994.8 876.65C976.35 887.3 960.75 896 960 896C959.25 896 943.65 887.3 925.2 876.65L891.75 857.15V817.25V777.2L924.75 758C942.9 747.35 958.5 738.65 959.55 738.65C960.45 738.5 976.35 747.2 994.8 757.85ZM1141.8 757.85L1175.25 777.2V817.25V857.15L1141.8 876.65C1123.35 887.3 1107.75 896 1107 896C1106.25 896 1090.65 887.3 1072.2 876.65L1038.75 857.15V817.25V777.2L1071.75 758C1089.9 747.35 1105.5 738.65 1106.55 738.65C1107.45 738.5 1123.35 747.2 1141.8 757.85ZM1288.8 757.85L1322.25 777.2V817.25V857.15L1288.8 876.65C1270.35 887.3 1254.75 896 1254 896C1253.4 896 1237.65 887.3 1219.2 876.65L1185.75 857.3V817.25V777.2L1218.75 758C1236.9 747.35 1252.5 738.65 1253.55 738.65C1254.45 738.5 1270.35 747.2 1288.8 757.85ZM1435.8 757.85L1469.25 777.2V817.25V857.15L1435.8 876.65C1417.35 887.3 1401.75 896 1401 896C1400.4 896 1384.65 887.3 1366.2 876.65L1332.75 857.3V817.25V777.2L1365.75 758C1383.9 747.35 1399.5 738.65 1400.55 738.65C1401.45 738.5 1417.35 747.2 1435.8 757.85Z" fill="#3827C7" fill-opacity="0.08"/>
</svg>
