<svg width="415" height="60" viewBox="0 0 415 60" fill="none" xmlns="http://www.w3.org/2000/svg">
<path d="M0.294762 7.94231H8.68281V50.9037H26.553V7.94231H34.9411V50.9037H42.5997C49.1643 50.9037 53.1759 46.7462 53.1759 40.1816V7.94231H61.564V40.1816C61.564 51.4872 53.9053 59 42.5997 59H0.294762V7.94231ZM68.1058 59V0.648357H76.1291V15.2363H86.7053C97.4275 15.2363 105.305 22.9679 105.305 33.69V59H97.2816V33.8359C97.2816 27.4901 92.9052 22.9679 86.7053 22.9679H76.1291V59H68.1058ZM123.296 59C115.491 59 109.875 53.5295 109.875 46.0897C109.875 38.6499 115.491 33.2523 123.296 33.2523H140.145V28.0736C140.145 25.156 138.103 22.9679 134.747 22.9679H112.063V15.2363H134.82C142.625 15.2363 148.168 20.6338 148.168 28.0736V59H123.296ZM117.898 46.0897C117.898 49.0802 120.014 51.2684 123.296 51.2684H140.145V40.9839H123.296C120.014 40.9839 117.898 43.1721 117.898 46.0897ZM167.924 59C160.119 59 154.576 53.5295 154.576 46.0897V7.94231H162.599V15.2363H179.375V22.9679H162.599V46.0897C162.599 49.0802 164.641 51.2684 167.996 51.2684H179.375V59H167.924ZM322.283 37.1181C322.283 24.5725 332.13 15.2363 345.113 15.2363H356.2V0.648357H364.223V59H345.113C332.13 59 322.283 49.6637 322.283 37.1181ZM330.671 37.1181C330.671 45.2874 336.944 51.2684 345.113 51.2684H356.2V22.9679H345.113C336.944 22.9679 330.671 28.9489 330.671 37.1181ZM391.769 59.7294C378.786 59.7294 368.939 50.1014 368.939 37.1181C368.939 24.1349 378.786 14.5069 391.769 14.5069C404.752 14.5069 414.526 24.1349 414.526 37.1181C414.526 50.1014 404.752 59.7294 391.769 59.7294ZM377.327 37.1181C377.327 45.725 383.6 51.9978 391.769 51.9978C399.865 51.9978 406.138 45.725 406.138 37.1181C406.138 28.5113 399.865 22.2385 391.769 22.2385C383.6 22.2385 377.327 28.5113 377.327 37.1181Z" fill="#02021E"/>
<path d="M200.95 15.2363H208.973V51.2684H227.208V15.2363H235.231V51.2684H244.349C249.819 51.2684 253.466 47.6214 253.466 41.7863V15.2363H261.49V42.0051C261.49 51.9249 254.269 59 244.349 59H200.95V15.2363ZM301.093 40.9839H279.868C276.586 40.9839 274.471 43.1721 274.471 46.0897C274.471 49.0802 276.586 51.2684 279.868 51.2684H301.093V59H279.503C271.699 59 266.083 53.6754 266.083 46.4544C266.083 42.5886 267.687 39.3063 270.386 37.1181C267.687 34.857 266.083 31.5747 266.083 27.7089C266.083 20.4879 271.699 15.2363 279.503 15.2363H301.093V22.9679H279.868C276.586 22.9679 274.471 25.156 274.471 28.0736C274.471 31.0642 276.586 33.2523 279.868 33.2523H301.093V40.9839Z" fill="#3827C7"/>
</svg>
